<svg xmlns="http://www.w3.org/2000/svg" width="54.649" height="48.055" viewBox="0 0 54.649 48.055"><defs><style>.a,.b{fill:none;}.a{stroke:#7a031f;}.c,.d{stroke:none;}.d{fill:#7a031f;}</style></defs><g transform="translate(-147.757 -15.16)"><g transform="matrix(-0.999, 0.035, -0.035, -0.999, 625.146, 476.908)"><path class="a" d="M1385.209-225.726c1.919,1.625,4.024,3.412,2.668,7.633-2.017,4.612-8.268,8.286-10.217,8.981s-5.546,1.35-8.123-1.414a6.512,6.512,0,0,1-.454-8.414c1.564-2.274,6.268-7.076,8.577-8.1S1381.94-228.495,1385.209-225.726Z" transform="translate(-934 658)"/><path class="a" d="M1379.348-223.482c-.81-.194-9.359,7.423-8.746,8.311s8.9-6.717,9.112-7.3A.94.94,0,0,0,1379.348-223.482Z" transform="translate(-934 658)"/><path class="a" d="M1047.692-515.268a10.769,10.769,0,0,1-2.385,7.759,21.361,21.361,0,0,1-9.711,6.627,10.688,10.688,0,0,1-3.525.345" transform="translate(-594.618 949.39)"/></g><g transform="matrix(0.105, 0.995, -0.995, 0.105, 543.654, -452.068)"><path class="a" d="M1379.4-226.423c1.281,1.085,2.685,2.277,1.781,5.093-1.346,3.077-5.517,5.529-6.817,5.992s-3.7.9-5.42-.943a4.345,4.345,0,0,1-.3-5.614c1.044-1.517,4.182-4.721,5.723-5.4S1377.22-228.27,1379.4-226.423Z" transform="translate(-934 658)"/><path class="a" d="M1376.427-223.483c-.54-.13-6.245,4.953-5.836,5.546s5.938-4.482,6.08-4.874A.627.627,0,0,0,1376.427-223.483Z" transform="translate(-934.936 656.557)"/><path class="a" d="M1042.494-515.268a7.185,7.185,0,0,1-1.591,5.177,14.252,14.252,0,0,1-6.479,4.422,7.131,7.131,0,0,1-2.352.23" transform="translate(-595.848 948.078)"/></g><g transform="translate(798.615 126.532) rotate(137)"><g class="b" transform="translate(376.31 492.428) rotate(-13)"><path class="c" d="M9.671,0c7.18-.133,9.671,3.16,9.671,7.057s-1.326,6.986-7.895,7.024S0,10.958,0,7.061,2.49.137,9.671,0Z"/><path class="d" d="M 10.08598041534424 0.9999942779541016 C 9.956070899963379 0.9999942779541016 9.82257080078125 1.00124454498291 9.689200401306152 1.003704071044922 C 6.545021057128906 1.061794281005859 4.220780372619629 1.696563720703125 2.781049728393555 2.890363693237305 C 1.582590103149414 3.884123802185059 1 5.248313903808594 1 7.060894012451172 C 1 8.597224235534668 1.979049682617188 10.06010437011719 3.756800651550293 11.18006420135498 C 5.707150459289551 12.40876388549805 8.396780967712402 13.08543395996094 11.33024024963379 13.08543395996094 C 11.36672019958496 13.08543395996094 11.40426063537598 13.08533382415771 11.44082069396973 13.08512401580811 C 14.20904064178467 13.06919384002686 16.0661506652832 12.50053405761719 17.11828994750977 11.34662437438965 C 17.95279121398926 10.43140411376953 18.34146118164062 9.069583892822266 18.34146118164062 7.060894012451172 C 18.34146118164062 5.271734237670898 17.76383972167969 3.853794097900391 16.6246509552002 2.846484184265137 C 15.23900032043457 1.621244430541992 13.03907012939453 0.9999942779541016 10.08598041534424 0.9999942779541016 M 10.08597946166992 -9.5367431640625e-07 C 16.9482250213623 -9.5367431640625e-07 19.34146118164062 3.239298820495605 19.34146118164062 7.060894012451172 C 19.34146118164062 10.95838356018066 18.01515007019043 14.04732418060303 11.44657039642334 14.08510398864746 C 11.40808296203613 14.08532524108887 11.36861133575439 14.08543872833252 11.33024024963379 14.08543872833252 C 4.819962501525879 14.08543872833252 0 10.935546875 0 7.060894012451172 C 0 3.163414001464844 2.49043083190918 0.1365442276000977 9.670730590820312 0.003873825073242188 C 9.810532569885254 0.001291275024414062 9.94971752166748 -9.5367431640625e-07 10.08597946166992 -9.5367431640625e-07 Z"/></g><g class="b" transform="translate(378.31 498.323) rotate(-11)"><path class="c" d="M1.611.3,7.341,0C8.063,0,9.264.266,9.4,1.2s-1.34,1.41-2.062,1.41l-5.747-.32C.872,2.293,0,2.052,0,1.33S.889.3,1.611.3Z"/><path class="d" d="M 7.365358352661133 1.000115871429443 L 1.695877552032471 1.297508716583252 L 7.3645339012146 1.61345386505127 C 7.707113742828369 1.605814099311829 8.189323425292969 1.432409524917603 8.376825332641602 1.285844564437866 C 8.254073143005371 1.156726717948914 7.850795269012451 1.00497567653656 7.365358352661133 1.000115871429443 M 7.341389656066895 -4.529953002929688e-06 C 8.063149452209473 -4.529953002929688e-06 9.263679504394531 0.2658255100250244 9.403589248657227 1.203775525093079 C 9.543499946594238 2.141735553741455 8.063149452209473 2.613715648651123 7.341389656066895 2.613715648651123 L 1.594059467315674 2.29338550567627 C 0.8722991943359375 2.29338550567627 -9.5367431640625e-07 2.051615476608276 -9.5367431640625e-07 1.329865574836731 C -9.5367431640625e-07 0.6081056594848633 0.889399528503418 0.3005754947662354 1.611149311065674 0.3005754947662354 L 7.341389656066895 -4.529953002929688e-06 Z"/></g><path class="a" d="M1005.568-526.191s1.681,2.863-1.513,7.2-6.187,2.578-6.187,2.578" transform="translate(89.612 1584.527) rotate(-47)"/></g><g transform="translate(563.508 -460.757) rotate(74)"><g class="b" transform="translate(376.31 491.714) rotate(-13)"><path class="c" d="M8.084,0c6-.111,8.084,2.641,8.084,5.9s-1.109,5.84-6.6,5.871S0,9.16,0,5.9,2.082.114,8.084,0Z"/><path class="d" d="M 8.430684089660645 1.000001907348633 C 8.322844505310059 1.000001907348633 8.21269416809082 1.001022338867188 8.102044105529785 1.003071784973145 C 5.51202392578125 1.050922393798828 3.603464126586914 1.568812370300293 2.429384231567383 2.542342185974121 C 1.467564582824707 3.339872360229492 1.000004768371582 4.438851833343506 1.000004768371582 5.902061939239502 C 1.000004768371582 7.127831935882568 1.791153907775879 8.301311492919922 3.227714538574219 9.206332206726074 C 4.832124710083008 10.21709156036377 7.049263954162598 10.77374172210693 9.470724105834961 10.77374172210693 C 9.500844955444336 10.77374172210693 9.531844139099121 10.77366161346436 9.562213897705078 10.77348232269287 C 11.82773399353027 10.76045227050781 13.3407039642334 10.30262184143066 14.1875638961792 9.373842239379883 C 14.85587406158447 8.64088249206543 15.16714477539062 7.537702083587646 15.16714477539062 5.902061939239502 C 15.16714477539062 4.455611705780029 14.70296478271484 3.311752319335938 13.78750419616699 2.50227165222168 C 12.66016387939453 1.505441665649414 10.85787391662598 1.000001907348633 8.430684089660645 1.000001907348633 M 8.430685043334961 2.86102294921875e-06 C 14.16669940948486 2.86102294921875e-06 16.16714477539062 2.707662582397461 16.16714477539062 5.902061939239502 C 16.16714477539062 9.159892082214355 15.05851459503174 11.74188232421875 9.567964553833008 11.77346229553223 C 9.535793304443359 11.77364730834961 9.502798080444336 11.77374172210693 9.470725059509277 11.77374172210693 C 4.028910636901855 11.77374172210693 3.814697265625e-06 9.140803337097168 3.814697265625e-06 5.902061939239502 C 3.814697265625e-06 2.644231796264648 2.081704139709473 0.1141319274902344 8.083574295043945 0.003241539001464844 C 8.200431823730469 0.001082420349121094 8.31678581237793 2.86102294921875e-06 8.430685043334961 2.86102294921875e-06 Z"/></g><g class="b" transform="translate(377.982 496.641) rotate(-11)"><path class="c" d="M1.347.251,6.137,0c.6,0,1.607.222,1.724,1.006S6.74,2.185,6.137,2.185l-4.8-.268c-.6,0-1.332-.2-1.332-.805S.743.251,1.347.251Z"/><path class="d" d="M 6.159836769104004 1.000159502029419 L 4.455999374389648 1.089531302452087 L 6.158405303955078 1.184412956237793 C 6.304694652557373 1.180066823959351 6.491709232330322 1.133574485778809 6.646729469299316 1.075016498565674 C 6.517830371856689 1.035034894943237 6.348430633544922 1.002647519111633 6.159836769104004 1.000159502029419 M 6.136521816253662 5.006790161132812e-06 C 6.739831924438477 5.006790161132812e-06 7.743321895599365 0.2221949100494385 7.86027193069458 1.00621497631073 C 7.977221965789795 1.790234923362732 6.739831924438477 2.184744834899902 6.136521816253662 2.184744834899902 L 1.332441806793213 1.91699492931366 C 0.7291417121887207 1.91699492931366 1.9073486328125e-06 1.71490490436554 1.9073486328125e-06 1.111604928970337 C 1.9073486328125e-06 0.5083049535751343 0.7434320449829102 0.2512449026107788 1.346732139587402 0.2512449026107788 L 6.136521816253662 5.006790161132812e-06 Z"/></g><path class="a" d="M6.436,0s1.4,2.393-1.265,6.021S0,8.176,0,8.176" transform="translate(383.845 494.592) rotate(-47)"/></g></g></svg>