<svg xmlns="http://www.w3.org/2000/svg" xmlns:xlink="http://www.w3.org/1999/xlink" width="45" height="44" viewBox="0 0 45 44"><defs><style>.a{fill:#fff;}.b{clip-path:url(#a);}</style><clipPath id="a"><rect class="a" width="45" height="44"/></clipPath></defs><g class="b"><g transform="translate(0.459 0)"><path class="a" d="M43.61,12.844a15.963,15.963,0,0,0-1.015-5.3A11.191,11.191,0,0,0,36.2,1.152,16,16,0,0,0,30.9.137C28.564.026,27.821,0,21.89,0s-6.674.026-9,.128a15.968,15.968,0,0,0-5.3,1.015A10.659,10.659,0,0,0,3.712,3.67,10.756,10.756,0,0,0,1.194,7.536a16.006,16.006,0,0,0-1.015,5.3C.068,15.174.042,15.916.042,21.848s.026,6.674.128,9a15.962,15.962,0,0,0,1.016,5.3,11.189,11.189,0,0,0,6.392,6.392,16.006,16.006,0,0,0,5.3,1.015c2.33.1,3.072.128,9,.128s6.674-.025,9-.128a15.959,15.959,0,0,0,5.3-1.015,11.174,11.174,0,0,0,6.392-6.392,16.017,16.017,0,0,0,1.015-5.3c.1-2.33.128-3.072.128-9S43.712,15.174,43.61,12.844ZM39.675,30.681a11.974,11.974,0,0,1-.751,4.054,7.247,7.247,0,0,1-4.148,4.148,12.017,12.017,0,0,1-4.054.751c-2.3.1-3,.128-8.824.128s-6.529-.025-8.825-.128a11.968,11.968,0,0,1-4.054-.751,6.722,6.722,0,0,1-2.509-1.63,6.792,6.792,0,0,1-1.63-2.509,12.019,12.019,0,0,1-.751-4.054c-.1-2.3-.128-3-.128-8.825s.025-6.529.128-8.824a11.968,11.968,0,0,1,.751-4.054A6.64,6.64,0,0,1,6.52,6.477a6.782,6.782,0,0,1,2.509-1.63A12.025,12.025,0,0,1,13.083,4.1c2.3-.1,3-.128,8.824-.128s6.529.026,8.825.128a11.974,11.974,0,0,1,4.054.751,6.718,6.718,0,0,1,2.509,1.63,6.79,6.79,0,0,1,1.63,2.509,12.023,12.023,0,0,1,.751,4.054c.1,2.3.128,3,.128,8.824S39.778,28.376,39.675,30.681Zm0,0" transform="translate(-0.042 0)"/><path class="a" d="M22.939,11.674A11.223,11.223,0,1,0,34.161,22.9,11.225,11.225,0,0,0,22.939,11.674Zm0,18.5a7.28,7.28,0,1,1,7.28-7.28A7.281,7.281,0,0,1,22.939,30.177Zm0,0" transform="translate(-1.091 -1.049)"/><path class="a" d="M39.227,10.928a2.62,2.62,0,1,1-2.62-2.62A2.62,2.62,0,0,1,39.227,10.928Zm0,0" transform="translate(-3.092 -0.747)"/></g></g></svg>