<svg xmlns="http://www.w3.org/2000/svg" width="267.526" height="171.819" viewBox="0 0 267.526 171.819">
  <g id="illust-hand" transform="translate(-95.342 -105.498)">
    <path id="Path_243" data-name="Path 243" d="M-1646.223,1102.347c5.938-8.6.666-1.436.666-1.436s10.434-12.756,14.138-14.749,9.618-8.313,9.9-9.346,7.8-27.051,8.474-29.06,9.247-27.244,11.211-29.211,7.152-6.151,8.05-9.643,38.619-18.08,40.389-18.85,15.775-9.748,22.106-9.208,8.211,5.181,8.211,5.181,6.1-.669,8.146-4.509,7.185-15.073,9.82-16.045,5.43-2.236,15.5,5.449,23.365,15.746,24.724,17.575,9.2,17.06,9.259,17.811,7.814,10.166,14.677,24.052,5.783,11.826,7.036,12.517,44.09,22.882,49.624,26.1c2.634,1.533,10.79,17.863-7.024,40.824-25.16,19.946-40.441,12.4-41.542,8.231-1.565-2.716-8.167-10.882-12.8-12.254s-10.675-9.7-17.387-11.81a22.771,22.771,0,0,1-10.408-6.915s-15.86-5.409-20.536-8.836-9.288-6.682-10.615-9.115-1.426-2.124-1.426-2.124-.9,2.447-2.644,3.14-4.866-.509-5.142-1.472-40.6,18.406-40.6,18.406-5.52,7.794-13.092,10.781-7.744,7.179-7.744,7.179a75.769,75.769,0,0,0-10.867,20.581c-4.473,12.669-22.477,11.238-37.528,5.408S-1652.162,1110.95-1646.223,1102.347Z" transform="translate(1743 -858)" fill="#fff"/>
    <path id="Path_218" data-name="Path 218" d="M-2548.027,1072.243c1.948-9.711,7.723-33.831,26.147-36.488s25.8,15.327,34.871,15.053,21.87-2.209,26.668-4.139,7.385,3.823,0,7.6-24.025,12.213-21.286,13.714,24.59-18.823,29.163-12.887-26.729,17.722-26,21.51,23.522-15.533,27.74-14.805,4.135,5.257,3.885,6.182-6.477,2.971-8.112,4.867-9.447,15.76-8.459,18.848,7.5,17.04-3.631,30.491-35.8,21.192-48.964,6.3S-2549.975,1081.954-2548.027,1072.243Z" transform="translate(2693 -907)" fill="#fff" stroke="#7a031f" stroke-linecap="round" stroke-width="2"/>
    <path id="Path_228" data-name="Path 228" d="M-2490.816,1058.491c-5.1-3.987-16.287-10.058-28.966-1.575s-11.584,18.622-12.811,20.807,8.64,41.174,31.95,38.817,28.5-20.947,28.738-25.048a11.43,11.43,0,0,0-4.245-10.171c-2.39-1.2-8-3.206-8.8-5.6C-2485.78,1073.225-2485.712,1062.478-2490.816,1058.491Z" transform="translate(2693 -907)" fill="#7a031f" stroke="#7a031f" stroke-linecap="round" stroke-width="1"/>
    <g id="Group_294" data-name="Group 294" transform="translate(-595.967 -2125)">
      <path id="Path_149" data-name="Path 149" d="M7276.108,2335.715c-3.191-2.752-48.852-23.41-51.827-27.758s-12.459-27.775-18.031-32.74-4.446-16.878-16.685-24.088-25.8-21.049-32.565-19.522-10.563,20.022-17.678,21.146-16.594-1.146-16.351,5.2,5.777,11.718,13.412,10.364,28.665-13.859,30.372-15.568" transform="translate(-6321)" fill="none" stroke="#7a031f" stroke-linecap="round" stroke-width="2"/>
      <path id="Path_150" data-name="Path 150" d="M7161.148,2256.583c.59,1.515,6.086,13.763,12.817,17.85" transform="translate(-6321)" fill="none" stroke="#7a031f" stroke-linecap="round" stroke-width="2"/>
      <path id="Path_151" data-name="Path 151" d="M7193.247,2294.234s-10.513-11.9-27.324-8.386-16.09,18.412-12.922,19.891,15.123,2.344,28.185,10.418" transform="translate(-6321)" fill="none" stroke="#7a031f" stroke-linecap="round" stroke-width="2"/>
      <path id="Path_152" data-name="Path 152" d="M7158.605,2306.96s1.8-11,11.6-9.493-1.594,11.968-2.228,12.067" transform="translate(-6321)" fill="none" stroke="#7a031f" stroke-linecap="round" stroke-width="2"/>
      <path id="Path_153" data-name="Path 153" d="M7211.047,2347.358c-9.039-.725-26.9-8.851-30.193-23.738" transform="translate(-6321)" fill="none" stroke="#7a031f" stroke-linecap="round" stroke-width="2"/>
      <path id="Path_154" data-name="Path 154" d="M7226.387,2385.233c-3.319-9.379-37.076-29.448-39.488-29.688" transform="translate(-6321)" fill="none" stroke="#7a031f" stroke-linecap="round" stroke-width="2"/>
      <path id="Path_155" data-name="Path 155" d="M7202.147,2358.238c-3.969.349-44.86-11.756-47.45-24.229" transform="translate(-6321)" fill="none" stroke="#7a031f" stroke-linecap="round" stroke-width="2"/>
    </g>
    <path id="Path_219" data-name="Path 219" d="M-2478.541,1076.567c1.245,1.772,8.7,4.667,19-4.645s-7.255,5.932-9.726,11.573-1.614,24.868-11.29,36.442-18.134,9.685-29.805,7.832" transform="translate(2693 -907)" fill="none" stroke="#7a031f" stroke-linecap="round" stroke-width="2"/>
    <path id="Path_220" data-name="Path 220" d="M-2446.737,1043.921c-2.91.766-8.384,5.6-8.876,8.145" transform="translate(2693 -907)" fill="none" stroke="#7a031f" stroke-linecap="round" stroke-width="2"/>
    <path id="Path_221" data-name="Path 221" d="M-2437.912,1094.806c.451,2.34,2.323,9.563-3.05,14.048s-15.057-10.529-16.7-21.021" transform="translate(2693 -907)" fill="none" stroke="#7a031f" stroke-linecap="round" stroke-width="2"/>
    <path id="Path_222" data-name="Path 222" d="M-2445.2,1109.206c0,2.247-.468,7.49-6.01,7.1s-9.685-6.638-9.685-6.638" transform="translate(2693 -907)" fill="none" stroke="#7a031f" stroke-linecap="round" stroke-width="2"/>
    <path id="Path_223" data-name="Path 223" d="M-2596.223,1151.08c3.651-7.869,24.119-22.143,25.072-26.178s12.974-46.729,18.268-55.281,8.323-10.1,8.323-10.1" transform="translate(2693 -907)" fill="none" stroke="#7a031f" stroke-linecap="round" stroke-width="2"/>
    <path id="Path_224" data-name="Path 224" d="M-2560.482,1104.282c4.992-6.517,4.823-15.176,12.283-19.494s19.676-5.558,24.739-10.067,12.726-11.389,16.431-1.538,3.2,18.755-8.971,23.427-6.893,6.705-5.256,6.705,10.7,12.428,0,28.472-16.454,16.818-16.454,16.818" transform="translate(2693 -907)" fill="#fff" stroke="#7a031f" stroke-width="2"/>
    <path id="Path_225" data-name="Path 225" d="M-2535.779,1173.726c.833-2.642,11.838-23.44,13.311-24.469s16.031-8.073,18.417-13.628" transform="translate(2693 -906.547)" fill="none" stroke="#7a031f" stroke-linecap="round" stroke-width="2"/>
    <path id="Path_226" data-name="Path 226" d="M-2518.646,1070.738c4,1.346,10.244,8.756,6.84,12.307s-10.129-6.767-13.9-6.767" transform="translate(2693 -907)" fill="none" stroke="#7a031f" stroke-linecap="round" stroke-width="2"/>
    <path id="Path_227" data-name="Path 227" d="M-2482.054,1066.581c3.279-7.235,28.416-18.153,16.9-14.268s-22.572,2.944-25.631.935-17.133-12.934-25.217-12.868-16.024,1.413-22.956,16.7-4.072,20.947-4.072,20.947" transform="translate(2693 -907)" fill="none" stroke="#7a031f" stroke-linecap="round" stroke-width="2"/>
    <path id="Path_229" data-name="Path 229" d="M-2454.621,1097.215c1.1-2.129,5.225-4.89,7.507-4.89s4.3,7.118,4.916,9.353-.219,5.557-4.916,5.888" transform="translate(2693 -907)" fill="none" stroke="#7a031f" stroke-width="2"/>
    <path id="Path_230" data-name="Path 230" d="M-2454.621,1098.75a8.334,8.334,0,0,0-6.032,4.72" transform="translate(2693 -907)" fill="none" stroke="#7a031f" stroke-width="2"/>
    <path id="Path_231" data-name="Path 231" d="M-2448.746,1106.264c.314,1.512.435,5.319-2.716,6.613s-8.331-2.769-9.257-5.972" transform="translate(2693 -907)" fill="none" stroke="#7a031f" stroke-width="2"/>
    <path id="Path_232" data-name="Path 232" d="M-2478.322,1080.57a4.137,4.137,0,0,1-2.828-4.678c.561-3.665,27.713-17.906,21.952-16.417s-23.308,13.786-26.092,11.773" transform="translate(2693 -907)" fill="none" stroke="#7a031f" stroke-linecap="round" stroke-width="1.5"/>
    <ellipse id="Ellipse_57" data-name="Ellipse 57" cx="1" cy="1.5" rx="1" ry="1.5" transform="translate(191 156)" fill="#fff"/>
    <path id="Path_238" data-name="Path 238" d="M2-.967C3.475-2.244,5,1.618,5,2.723S3.1,4,2,4A2,2,0,0,1,0,2C0,.9.525.31,2-.967Z" transform="translate(184 199)" fill="#fff"/>
    <path id="Path_233" data-name="Path 233" d="M.877-.745A2.808,2.808,0,0,1,3,1c0,.552-.672,1-1.5,1S0,1.552,0,1,.048-.745.877-.745Z" transform="translate(189 187)" fill="#fff"/>
    <path id="Path_234" data-name="Path 234" d="M1.092-.745c1.032,0,2.646,1.487,2.646,2.175S2.9,2.675,1.869,2.675,0,2.118,0,1.429.06-.745,1.092-.745Z" transform="translate(201.27 169.725) rotate(112)" fill="#fff"/>
    <path id="Path_235" data-name="Path 235" d="M.877-.745A2.808,2.808,0,0,1,3,1c0,.552-.672,1-1.5,1S0,1.552,0,1,.048-.745.877-.745Z" transform="translate(206.491 192.001) rotate(67)" fill="#fff"/>
    <path id="Path_237" data-name="Path 237" d="M1.367-.745c1.292,0,3.311,1.861,3.311,2.722S3.631,3.536,2.339,3.536,0,2.838,0,1.976.075-.745,1.367-.745Z" transform="translate(170.59 157.76) rotate(14)" fill="#fff"/>
    <path id="Path_236" data-name="Path 236" d="M1.663-.745c1.572,0,4.028,1.972,4.028,2.885S4.417,3.792,2.846,3.792,0,3.052,0,2.139.092-.745,1.663-.745Z" transform="translate(212.089 178.824) rotate(67)" fill="#fff"/>
    <path id="Path_239" data-name="Path 239" d="M-2442.372,1067.071a45.851,45.851,0,0,0-2.372-6.959" transform="translate(2693 -907)" fill="none" stroke="#7a031f" stroke-linecap="round" stroke-width="2"/>
    <path id="Path_240" data-name="Path 240" d="M-2455.613,1113.123c-.258,3.264-2.055,9.377-7.525,4.726" transform="translate(2693 -907)" fill="none" stroke="#7a031f" stroke-width="2"/>
    <path id="Path_241" data-name="Path 241" d="M-2470.718,1035.487c.72,1.232-4.4,3.058-9.056,2.95s-6.118-1.41-6.118-1.41" transform="translate(2693 -907)" fill="none" stroke="#7a031f" stroke-linecap="round" stroke-width="2"/>
    <path id="Path_242" data-name="Path 242" d="M-2505.612,1039.569c5.826-2,17.77-10.106,24.4-9.459s8.076,4.726,8.076,4.726" transform="translate(2693 -907)" fill="none" stroke="#7a031f" stroke-width="2"/>
  </g>
</svg>
