<svg xmlns="http://www.w3.org/2000/svg" xmlns:xlink="http://www.w3.org/1999/xlink" width="278.313" height="194.479" viewBox="0 0 278.313 194.479">
  <defs>
    <filter id="Ellipse_2" x="45.157" y="0.492" width="109.157" height="101.038" filterUnits="userSpaceOnUse">
      <feOffset dy="3" input="SourceAlpha"/>
      <feGaussianBlur stdDeviation="5" result="blur"/>
      <feFlood flood-opacity="0.161"/>
      <feComposite operator="in" in2="blur"/>
      <feComposite in="SourceGraphic"/>
    </filter>
    <filter id="Ellipse_2-2" x="111.157" y="28.492" width="109.157" height="101.038" filterUnits="userSpaceOnUse">
      <feOffset dy="3" input="SourceAlpha"/>
      <feGaussianBlur stdDeviation="5" result="blur-2"/>
      <feFlood flood-opacity="0.161"/>
      <feComposite operator="in" in2="blur-2"/>
      <feComposite in="SourceGraphic"/>
    </filter>
    <filter id="Ellipse_2-3" x="169.157" y="53.492" width="109.157" height="101.038" filterUnits="userSpaceOnUse">
      <feOffset dy="3" input="SourceAlpha"/>
      <feGaussianBlur stdDeviation="5" result="blur-3"/>
      <feFlood flood-opacity="0.161"/>
      <feComposite operator="in" in2="blur-3"/>
      <feComposite in="SourceGraphic"/>
    </filter>
    <filter id="Ellipse_2-4" x="0" y="37.492" width="109.157" height="101.038" filterUnits="userSpaceOnUse">
      <feOffset dy="3" input="SourceAlpha"/>
      <feGaussianBlur stdDeviation="5" result="blur-4"/>
      <feFlood flood-opacity="0.161"/>
      <feComposite operator="in" in2="blur-4"/>
      <feComposite in="SourceGraphic"/>
    </filter>
    <filter id="Ellipse_2-5" x="60.157" y="62.492" width="112.443" height="103.987" filterUnits="userSpaceOnUse">
      <feOffset dy="3" input="SourceAlpha"/>
      <feGaussianBlur stdDeviation="5" result="blur-5"/>
      <feFlood flood-opacity="0.161"/>
      <feComposite operator="in" in2="blur-5"/>
      <feComposite in="SourceGraphic"/>
    </filter>
    <filter id="Ellipse_2-6" x="124" y="90.492" width="112.443" height="103.987" filterUnits="userSpaceOnUse">
      <feOffset dy="3" input="SourceAlpha"/>
      <feGaussianBlur stdDeviation="5" result="blur-6"/>
      <feFlood flood-opacity="0.161"/>
      <feComposite operator="in" in2="blur-6"/>
      <feComposite in="SourceGraphic"/>
    </filter>
  </defs>
  <g id="illust-time" transform="translate(-159.676 -1113)">
    <g id="Group_275" data-name="Group 275" transform="translate(6.833 -546)">
      <g id="bao2" transform="translate(213 1671.492)">
        <g transform="matrix(1, 0, 0, 1, -60.16, -12.49)" filter="url(#Ellipse_2)">
          <g id="Ellipse_2-7" data-name="Ellipse 2" transform="translate(60.16 12.49)" fill="#fff" stroke="#7a031f" stroke-width="3">
            <ellipse cx="39.578" cy="35.519" rx="39.578" ry="35.519" stroke="none"/>
            <ellipse cx="39.578" cy="35.519" rx="38.078" ry="34.019" fill="none"/>
          </g>
        </g>
        <path id="Path_120" data-name="Path 120" d="M1.522,0c.841,0,1.522,2.247,1.522,3.088A1.522,1.522,0,0,1,0,3.088C0,2.247.682,0,1.522,0Z" transform="translate(46.106 13.867) rotate(-48)" fill="#7a031f"/>
        <path id="Path_121" data-name="Path 121" d="M1.522,0c.841,0,1.522,2.247,1.522,3.088A1.522,1.522,0,0,1,0,3.088C0,2.247.682,0,1.522,0Z" transform="translate(44.659 10.152) rotate(-104)" fill="#7a031f"/>
        <path id="Path_122" data-name="Path 122" d="M1.522,0c.841,0,1.522,2.247,1.522,3.088A1.522,1.522,0,0,1,0,3.088C0,2.247.682,0,1.522,0Z" transform="matrix(-0.326, 0.946, -0.946, -0.326, 39.274, 7.429)" fill="#7a031f"/>
        <path id="Path_123" data-name="Path 123" d="M1.522,0c.841,0,1.522,2.247,1.522,3.088A1.522,1.522,0,0,1,0,3.088C0,2.247.682,0,1.522,0Z" transform="matrix(0.629, 0.777, -0.777, 0.629, 38.973, 11.644)" fill="#7a031f"/>
      </g>
      <g id="bao2-2" data-name="bao2" transform="translate(279 1699.492)">
        <g transform="matrix(1, 0, 0, 1, -126.16, -40.49)" filter="url(#Ellipse_2-2)">
          <g id="Ellipse_2-8" data-name="Ellipse 2" transform="translate(126.16 40.49)" fill="#fff" stroke="#7a031f" stroke-width="3">
            <ellipse cx="39.578" cy="35.519" rx="39.578" ry="35.519" stroke="none"/>
            <ellipse cx="39.578" cy="35.519" rx="38.078" ry="34.019" fill="none"/>
          </g>
        </g>
        <path id="Path_120-2" data-name="Path 120" d="M1.522,0c.841,0,1.522,2.247,1.522,3.088A1.522,1.522,0,0,1,0,3.088C0,2.247.682,0,1.522,0Z" transform="translate(46.106 13.867) rotate(-48)" fill="#7a031f"/>
        <path id="Path_121-2" data-name="Path 121" d="M1.522,0c.841,0,1.522,2.247,1.522,3.088A1.522,1.522,0,0,1,0,3.088C0,2.247.682,0,1.522,0Z" transform="translate(44.659 10.152) rotate(-104)" fill="#7a031f"/>
        <path id="Path_122-2" data-name="Path 122" d="M1.522,0c.841,0,1.522,2.247,1.522,3.088A1.522,1.522,0,0,1,0,3.088C0,2.247.682,0,1.522,0Z" transform="matrix(-0.326, 0.946, -0.946, -0.326, 39.274, 7.429)" fill="#7a031f"/>
        <path id="Path_123-2" data-name="Path 123" d="M1.522,0c.841,0,1.522,2.247,1.522,3.088A1.522,1.522,0,0,1,0,3.088C0,2.247.682,0,1.522,0Z" transform="matrix(0.629, 0.777, -0.777, 0.629, 38.973, 11.644)" fill="#7a031f"/>
      </g>
      <g id="bao2-3" data-name="bao2" transform="translate(337 1724.492)">
        <g transform="matrix(1, 0, 0, 1, -184.16, -65.49)" filter="url(#Ellipse_2-3)">
          <g id="Ellipse_2-9" data-name="Ellipse 2" transform="translate(184.16 65.49)" fill="#fff" stroke="#7a031f" stroke-width="3">
            <ellipse cx="39.578" cy="35.519" rx="39.578" ry="35.519" stroke="none"/>
            <ellipse cx="39.578" cy="35.519" rx="38.078" ry="34.019" fill="none"/>
          </g>
        </g>
        <path id="Path_120-3" data-name="Path 120" d="M1.522,0c.841,0,1.522,2.247,1.522,3.088A1.522,1.522,0,0,1,0,3.088C0,2.247.682,0,1.522,0Z" transform="translate(46.106 13.867) rotate(-48)" fill="#7a031f"/>
        <path id="Path_121-3" data-name="Path 121" d="M1.522,0c.841,0,1.522,2.247,1.522,3.088A1.522,1.522,0,0,1,0,3.088C0,2.247.682,0,1.522,0Z" transform="translate(44.659 10.152) rotate(-104)" fill="#7a031f"/>
        <path id="Path_122-3" data-name="Path 122" d="M1.522,0c.841,0,1.522,2.247,1.522,3.088A1.522,1.522,0,0,1,0,3.088C0,2.247.682,0,1.522,0Z" transform="matrix(-0.326, 0.946, -0.946, -0.326, 39.274, 7.429)" fill="#7a031f"/>
        <path id="Path_123-3" data-name="Path 123" d="M1.522,0c.841,0,1.522,2.247,1.522,3.088A1.522,1.522,0,0,1,0,3.088C0,2.247.682,0,1.522,0Z" transform="matrix(0.629, 0.777, -0.777, 0.629, 38.973, 11.644)" fill="#7a031f"/>
      </g>
    </g>
    <g id="bao2-4" data-name="bao2" transform="translate(174.676 1162.492)">
      <g transform="matrix(1, 0, 0, 1, -15, -49.49)" filter="url(#Ellipse_2-4)">
        <g id="Ellipse_2-10" data-name="Ellipse 2" transform="translate(15 49.49)" fill="#fff" stroke="#7a031f" stroke-width="3">
          <ellipse cx="39.578" cy="35.519" rx="39.578" ry="35.519" stroke="none"/>
          <ellipse cx="39.578" cy="35.519" rx="38.078" ry="34.019" fill="none"/>
        </g>
      </g>
      <path id="Path_120-4" data-name="Path 120" d="M1.522,0c.841,0,1.522,2.247,1.522,3.088A1.522,1.522,0,0,1,0,3.088C0,2.247.682,0,1.522,0Z" transform="translate(46.106 13.867) rotate(-48)" fill="#7a031f"/>
      <path id="Path_121-4" data-name="Path 121" d="M1.522,0c.841,0,1.522,2.247,1.522,3.088A1.522,1.522,0,0,1,0,3.088C0,2.247.682,0,1.522,0Z" transform="translate(44.659 10.152) rotate(-104)" fill="#7a031f"/>
      <path id="Path_122-4" data-name="Path 122" d="M1.522,0c.841,0,1.522,2.247,1.522,3.088A1.522,1.522,0,0,1,0,3.088C0,2.247.682,0,1.522,0Z" transform="matrix(-0.326, 0.946, -0.946, -0.326, 39.274, 7.429)" fill="#7a031f"/>
      <path id="Path_123-4" data-name="Path 123" d="M1.522,0c.841,0,1.522,2.247,1.522,3.088A1.522,1.522,0,0,1,0,3.088C0,2.247.682,0,1.522,0Z" transform="matrix(0.629, 0.777, -0.777, 0.629, 38.973, 11.644)" fill="#7a031f"/>
    </g>
    <g id="bao2-5" data-name="bao2" transform="translate(234.833 1187.492)">
      <g transform="matrix(1, 0, 0, 1, -75.16, -74.49)" filter="url(#Ellipse_2-5)">
        <g id="Ellipse_2-11" data-name="Ellipse 2" transform="translate(75.16 74.49)" fill="#fff" stroke="#7a031f" stroke-width="3">
          <ellipse cx="41.221" cy="36.993" rx="41.221" ry="36.993" stroke="none"/>
          <ellipse cx="41.221" cy="36.993" rx="39.721" ry="35.493" fill="none"/>
        </g>
      </g>
      <path id="Path_120-5" data-name="Path 120" d="M1.585,0c.876,0,1.585,2.341,1.585,3.216A1.585,1.585,0,0,1,0,3.216C0,2.341.71,0,1.585,0Z" transform="translate(48.02 14.443) rotate(-48)" fill="#7a031f"/>
      <path id="Path_121-5" data-name="Path 121" d="M1.585,0c.876,0,1.585,2.341,1.585,3.216A1.585,1.585,0,0,1,0,3.216C0,2.341.71,0,1.585,0Z" transform="translate(46.513 10.574) rotate(-104)" fill="#7a031f"/>
      <path id="Path_122-5" data-name="Path 122" d="M1.585,0c.876,0,1.585,2.341,1.585,3.216A1.585,1.585,0,0,1,0,3.216C0,2.341.71,0,1.585,0Z" transform="matrix(-0.326, 0.946, -0.946, -0.326, 40.905, 7.737)" fill="#7a031f"/>
      <path id="Path_123-5" data-name="Path 123" d="M1.585,0c.876,0,1.585,2.341,1.585,3.216A1.585,1.585,0,0,1,0,3.216C0,2.341.71,0,1.585,0Z" transform="matrix(0.629, 0.777, -0.777, 0.629, 40.591, 12.128)" fill="#7a031f"/>
    </g>
    <g id="bao2-6" data-name="bao2" transform="translate(298.676 1215.492)">
      <g transform="matrix(1, 0, 0, 1, -139, -102.49)" filter="url(#Ellipse_2-6)">
        <g id="Ellipse_2-12" data-name="Ellipse 2" transform="translate(139 102.49)" fill="#fff" stroke="#7a031f" stroke-width="3">
          <ellipse cx="41.221" cy="36.993" rx="41.221" ry="36.993" stroke="none"/>
          <ellipse cx="41.221" cy="36.993" rx="39.721" ry="35.493" fill="none"/>
        </g>
      </g>
      <path id="Path_120-6" data-name="Path 120" d="M1.585,0c.876,0,1.585,2.341,1.585,3.216A1.585,1.585,0,0,1,0,3.216C0,2.341.71,0,1.585,0Z" transform="translate(48.02 14.443) rotate(-48)" fill="#7a031f"/>
      <path id="Path_121-6" data-name="Path 121" d="M1.585,0c.876,0,1.585,2.341,1.585,3.216A1.585,1.585,0,0,1,0,3.216C0,2.341.71,0,1.585,0Z" transform="translate(46.513 10.574) rotate(-104)" fill="#7a031f"/>
      <path id="Path_122-6" data-name="Path 122" d="M1.585,0c.876,0,1.585,2.341,1.585,3.216A1.585,1.585,0,0,1,0,3.216C0,2.341.71,0,1.585,0Z" transform="matrix(-0.326, 0.946, -0.946, -0.326, 40.905, 7.737)" fill="#7a031f"/>
      <path id="Path_123-6" data-name="Path 123" d="M1.585,0c.876,0,1.585,2.341,1.585,3.216A1.585,1.585,0,0,1,0,3.216C0,2.341.71,0,1.585,0Z" transform="matrix(0.629, 0.777, -0.777, 0.629, 40.591, 12.128)" fill="#7a031f"/>
    </g>
    <g id="clock" transform="translate(195.333 -534.798)">
      <g id="Ellipse_56" data-name="Ellipse 56" transform="translate(199.5 1647.798)" fill="#fff" stroke="#7a031f" stroke-width="3">
        <circle cx="21" cy="21" r="21" stroke="none"/>
        <circle cx="21" cy="21" r="19.5" fill="none"/>
      </g>
      <line id="Line_32" data-name="Line 32" y2="17" transform="translate(220.5 1652.798)" fill="none" stroke="#7a031f" stroke-linecap="round" stroke-width="3"/>
      <line id="Line_33" data-name="Line 33" x1="11.196" transform="translate(221.271 1669.271)" fill="none" stroke="#7a031f" stroke-linecap="round" stroke-width="3"/>
    </g>
  </g>
</svg>
