<svg xmlns="http://www.w3.org/2000/svg" xmlns:xlink="http://www.w3.org/1999/xlink" width="200.41" height="180.081" viewBox="0 0 200.41 180.081">
  <defs>
    <clipPath id="clip-path">
      <path id="Path_79" data-name="Path 79" d="M1654.6,961.78c0-13.874-34.153-25.118-76.278-25.118-42.106,0-76.249,11.244-76.249,25.118,0,13.851,34.143,25.086,76.249,25.086C1620.446,986.866,1654.6,975.631,1654.6,961.78Z" transform="translate(-1502.071 -936.662)" fill="none"/>
    </clipPath>
    <clipPath id="clip-path-2">
      <path id="Path_93" data-name="Path 93" d="M1578.32,965.6c-42.106,0-76.249-11.235-76.249-25.089,0-13.87,34.143-25.115,76.249-25.115,42.126,0,76.278,11.245,76.278,25.115C1654.6,954.365,1620.446,965.6,1578.32,965.6Z" transform="translate(-1502.071 -915.396)" fill="none"/>
    </clipPath>
    <clipPath id="clip-path-3">
      <ellipse id="Ellipse_47" data-name="Ellipse 47" cx="75.5" cy="24" rx="75.5" ry="24" transform="translate(1496.501 917.396)" fill="none" stroke="#707070" stroke-width="1"/>
    </clipPath>
    <filter id="Ellipse_45" x="6" y="66.096" width="94" height="87" filterUnits="userSpaceOnUse">
      <feOffset dy="3" input="SourceAlpha"/>
      <feGaussianBlur stdDeviation="5" result="blur"/>
      <feFlood flood-opacity="0.161"/>
      <feComposite operator="in" in2="blur"/>
      <feComposite in="SourceGraphic"/>
    </filter>
    <filter id="Ellipse_18" x="6" y="66.096" width="94" height="87" filterUnits="userSpaceOnUse">
      <feOffset dy="3" input="SourceAlpha"/>
      <feGaussianBlur stdDeviation="5" result="blur-2"/>
      <feFlood flood-opacity="0.161"/>
      <feComposite operator="in" in2="blur-2"/>
      <feComposite in="SourceGraphic"/>
    </filter>
    <filter id="Ellipse_45-2" x="64" y="68.096" width="94" height="87" filterUnits="userSpaceOnUse">
      <feOffset dy="3" input="SourceAlpha"/>
      <feGaussianBlur stdDeviation="5" result="blur-3"/>
      <feFlood flood-opacity="0.161"/>
      <feComposite operator="in" in2="blur-3"/>
      <feComposite in="SourceGraphic"/>
    </filter>
    <filter id="Ellipse_18-2" x="64" y="68.096" width="94" height="87" filterUnits="userSpaceOnUse">
      <feOffset dy="3" input="SourceAlpha"/>
      <feGaussianBlur stdDeviation="5" result="blur-4"/>
      <feFlood flood-opacity="0.161"/>
      <feComposite operator="in" in2="blur-4"/>
      <feComposite in="SourceGraphic"/>
    </filter>
    <clipPath id="clip-path-4">
      <path id="Path_100" data-name="Path 100" d="M1933.971,747.3c2.558-14.512-31.1-32.574-75.164-40.349-44.045-7.764-81.835-2.3-84.393,12.213-2.558,14.491,31.088,32.54,75.132,40.311C1893.615,767.246,1931.412,761.791,1933.971,747.3Z" transform="translate(-1774.277 -703.419)" fill="none"/>
    </clipPath>
  </defs>
  <g id="illust-shop" transform="translate(-684 -2323.904)">
    <g id="Component_13_5" data-name="Component 13 – 5" transform="translate(685 2325)">
      <g id="Group_253" data-name="Group 253" transform="translate(-1489.501 -851.396)">
        <path id="Path_74" data-name="Path 74" d="M1652.5,955.568c0-16.63-36.5-30.117-81.521-30.117-44.993,0-81.479,13.486-81.479,30.117,0,16.614,36.486,30.084,81.479,30.084C1616.006,985.652,1652.5,972.182,1652.5,955.568Z" transform="translate(0 -5.866)" fill="#fff" stroke="#7a031f" stroke-width="2"/>
        <path id="Path_75" data-name="Path 75" d="M1489.5,1047.336c0,16.588,36.486,30.091,81.479,30.091,45.026,0,81.521-13.5,81.521-30.091V997.748c0,16.614-36.5,30.084-81.521,30.084-44.993,0-81.479-13.47-81.479-30.084Z" transform="translate(0 -48.046)" fill="#fff" stroke="#7a031f" stroke-width="2"/>
        <line id="Line_20" data-name="Line 20" y1="49.588" transform="translate(1652.501 949.701)" fill="#ffd99f" stroke="#7a031f" stroke-width="2"/>
        <path id="Path_76" data-name="Path 76" d="M1582.665,1057.178s4.218,13.35,22.348,15.866l2.422,1.955v24.284l-3.02,1.364s-15.156-1.461-21.053,5.918" transform="translate(-54.355 -81.717)" fill="none" stroke="#7a031f" stroke-linecap="round" stroke-linejoin="round" stroke-width="2"/>
        <path id="Path_77" data-name="Path 77" d="M1654.6,961.78c0-13.874-34.153-25.118-76.278-25.118-42.106,0-76.249,11.244-76.249,25.118,0,13.851,34.143,25.086,76.249,25.086C1620.446,986.866,1654.6,975.631,1654.6,961.78Z" transform="translate(-7.334 -12.407)" fill="none" stroke="#7a031f" stroke-width="2"/>
        <g id="Group_236" data-name="Group 236" transform="translate(1494.737 924.255)" clip-path="url(#clip-path)">
          <path id="Path_78" data-name="Path 78" d="M1654.6,1043.328c0-13.874-34.153-26.752-76.278-26.752-42.106,0-76.249,12.878-76.249,26.752,0,13.854,34.143,25.092,76.249,25.092C1620.446,1068.42,1654.6,1057.182,1654.6,1043.328Z" transform="translate(-1502.071 -983.286)" fill="#ffd99f" stroke="#140b0a" stroke-width="2"/>
        </g>
        <path id="Path_80" data-name="Path 80" d="M1654.6,961.78c0-13.874-34.153-25.118-76.278-25.118-42.106,0-76.249,11.244-76.249,25.118,0,13.851,34.143,25.086,76.249,25.086C1620.446,986.866,1654.6,975.631,1654.6,961.78Z" transform="translate(-7.334 -12.407)" fill="none" stroke="#7a031f" stroke-width="2"/>
        <path id="Path_81" data-name="Path 81" d="M1570.98,925.451c-44.993,0-81.479,13.486-81.479,30.117,0,16.614,36.486,30.084,81.479,30.084,45.026,0,81.521-13.47,81.521-30.084C1652.5,938.938,1616.006,925.451,1570.98,925.451Zm.006,54.874c-42.106,0-76.249-11.235-76.249-25.086,0-13.874,34.143-25.118,76.249-25.118,42.126,0,76.278,11.244,76.278,25.118C1647.265,969.09,1613.112,980.325,1570.986,980.325Z" transform="translate(0 -5.866)" fill="none" stroke="#7a031f" stroke-width="2"/>
        <path id="Path_82" data-name="Path 82" d="M1622.6,1094.617l-6.149-.643v-6.788l6.149.64Z" transform="translate(-74.066 -100.227)" fill="#fff" stroke="#7a031f" stroke-linecap="round" stroke-linejoin="round" stroke-width="2"/>
        <path id="Path_83" data-name="Path 83" d="M1547.938,1071.349l-.586.827v2.2l.586,1.132,2.939.98-.586-1.142v-2.2l.586-.82Z" transform="translate(-33.752 -90.988)" fill="#fff" stroke="#7a031f" stroke-linecap="round" stroke-linejoin="round" stroke-width="2"/>
        <path id="Path_84" data-name="Path 84" d="M1547.938,1114.412l-.586.823v2.2l.586,1.133,2.939.976-.586-1.142v-2.2l.586-.814Z" transform="translate(-33.752 -116.112)" fill="#fff" stroke="#7a031f" stroke-linecap="round" stroke-linejoin="round" stroke-width="2"/>
        <path id="Path_85" data-name="Path 85" d="M1547.938,1148.967l-.586.827v2.2l.586,1.136,2.939.976-.586-1.142v-2.2l.586-.814Z" transform="translate(-33.752 -136.272)" fill="#fff" stroke="#7a031f" stroke-linecap="round" stroke-linejoin="round" stroke-width="2"/>
        <path id="Path_86" data-name="Path 86" d="M1622.6,1124.775l-6.149-.64v-9.385l6.149.647Z" transform="translate(-74.066 -116.308)" fill="#fff" stroke="#7a031f" stroke-linecap="round" stroke-linejoin="round" stroke-width="2"/>
        <path id="Path_87" data-name="Path 87" d="M1622.6,1157.516l-6.149-.64v-9.382l6.149.647Z" transform="translate(-74.066 -135.413)" fill="#fff" stroke="#7a031f" stroke-linecap="round" stroke-linejoin="round" stroke-width="2"/>
        <path id="Path_88" data-name="Path 88" d="M1502.071,975.685c0,13.854,34.143,25.089,76.249,25.089,42.126,0,76.278-11.235,76.278-25.089v8.862c0,13.851-34.153,25.086-76.278,25.086-42.106,0-76.249-11.234-76.249-25.086Z" transform="translate(-7.334 -35.174)" fill="#fff" stroke="#7a031f" stroke-width="2"/>
        <path id="Path_89" data-name="Path 89" d="M1578.32,965.6c-42.106,0-76.249-11.235-76.249-25.089,0-13.87,34.143-25.115,76.249-25.115,42.126,0,76.278,11.245,76.278,25.115C1654.6,954.365,1620.446,965.6,1578.32,965.6Z" transform="translate(-7.334)" fill="#fff" stroke="#7a031f" stroke-width="2"/>
        <g id="Group_251" data-name="Group 251" transform="translate(1494.737 915.396)" clip-path="url(#clip-path-2)">
          <path id="Path_90" data-name="Path 90" d="M1654.6,1007.882c0-13.874-34.153-26.751-76.278-26.751-42.106,0-76.249,12.878-76.249,26.751,0,13.854,34.143,25.092,76.249,25.092C1620.446,1032.975,1654.6,1021.737,1654.6,1007.882Z" transform="translate(-1502.071 -953.748)" fill="#fff" stroke="#7a031f" stroke-linecap="round" stroke-linejoin="round" stroke-width="2"/>
          <path id="Path_91" data-name="Path 91" d="M1654.6,1022.054c0-13.871-34.153-26.751-76.278-26.751-42.106,0-76.249,12.881-76.249,26.751s34.143,25.092,76.249,25.092C1620.446,1047.147,1654.6,1035.912,1654.6,1022.054Z" transform="translate(-1502.071 -962.016)" fill="none" stroke="#140b0a" stroke-width="2"/>
          <g id="Group_250" data-name="Group 250" transform="translate(26.638 33.319)">
            <g id="Group_240" data-name="Group 240" transform="translate(0 6.288)">
              <line id="Line_21" data-name="Line 21" x2="14.58" y2="20.135" fill="#fff" stroke="#7a031f" stroke-width="2"/>
            </g>
            <g id="Group_241" data-name="Group 241" transform="translate(8.673 3.86)">
              <line id="Line_22" data-name="Line 22" x2="14.58" y2="20.135" fill="#fff" stroke="#7a031f" stroke-width="2"/>
            </g>
            <g id="Group_242" data-name="Group 242" transform="translate(18.043 3.167)">
              <line id="Line_23" data-name="Line 23" x2="14.58" y2="20.135" fill="#fff" stroke="#7a031f" stroke-width="2"/>
            </g>
            <g id="Group_243" data-name="Group 243" transform="translate(26.719 1.084)">
              <line id="Line_24" data-name="Line 24" x2="14.58" y2="20.135" fill="#fff" stroke="#7a031f" stroke-width="2"/>
            </g>
            <g id="Group_244" data-name="Group 244" transform="translate(36.782 1.084)">
              <line id="Line_25" data-name="Line 25" x2="14.58" y2="20.135" fill="#fff" stroke="#7a031f" stroke-width="2"/>
            </g>
            <g id="Group_245" data-name="Group 245" transform="translate(45.997)">
              <line id="Line_26" data-name="Line 26" x2="15.432" y2="21.22" fill="#fff" stroke="#7a031f" stroke-width="2"/>
            </g>
            <g id="Group_246" data-name="Group 246" transform="translate(55.986 0.067)">
              <line id="Line_27" data-name="Line 27" x2="15.505" y2="21.153" fill="#fff" stroke="#7a031f" stroke-width="2"/>
            </g>
            <g id="Group_247" data-name="Group 247" transform="translate(66.977 1.084)">
              <line id="Line_28" data-name="Line 28" x2="14.58" y2="20.135" fill="#fff" stroke="#7a031f" stroke-width="2"/>
            </g>
            <g id="Group_248" data-name="Group 248" transform="translate(77.548 1.786)">
              <line id="Line_29" data-name="Line 29" x2="14.072" y2="19.434" fill="#fff" stroke="#7a031f" stroke-width="2"/>
            </g>
            <g id="Group_249" data-name="Group 249" transform="translate(89.189 3.864)">
              <line id="Line_30" data-name="Line 30" x2="14.58" y2="20.135" fill="#fff" stroke="#7a031f" stroke-width="2"/>
            </g>
          </g>
          <path id="Path_92" data-name="Path 92" d="M1654.6,1022.054c0-13.871-34.153-26.751-76.278-26.751-42.106,0-76.249,12.881-76.249,26.751s34.143,25.092,76.249,25.092C1620.446,1047.147,1654.6,1035.912,1654.6,1022.054Z" transform="translate(-1502.071 -962.016)" fill="none" stroke="#7a031f" stroke-width="2"/>
        </g>
        <g id="Mask_Group_10" data-name="Mask Group 10" clip-path="url(#clip-path-3)">
          <g id="bao" transform="translate(931.501 803.396)">
            <g transform="matrix(1, 0, 0, 1, 557, 46.9)" filter="url(#Ellipse_45)">
              <g id="Ellipse_45-3" data-name="Ellipse 45" transform="translate(21 78.1)" fill="#fff" stroke="#7a031f" stroke-width="2">
                <ellipse cx="32" cy="28.5" rx="32" ry="28.5" stroke="none"/>
                <ellipse cx="32" cy="28.5" rx="31" ry="27.5" fill="none"/>
              </g>
            </g>
            <g transform="matrix(1, 0, 0, 1, 557, 46.9)" filter="url(#Ellipse_18)">
              <g id="Ellipse_18-3" data-name="Ellipse 18" transform="translate(21 78.1)" fill="none" stroke="#7a031f" stroke-width="2">
                <ellipse cx="32" cy="28.5" rx="32" ry="28.5" stroke="none"/>
                <ellipse cx="32" cy="28.5" rx="31" ry="27.5" fill="none"/>
              </g>
            </g>
            <path id="Path_14" data-name="Path 14" d="M1308.425,69.913s-2.224.122-2.715,1.4.935,1.636,1.845.854c.643-.552.273-1.423.87-2.259Z" transform="translate(-704.977 59.938)" fill="#7a031f"/>
            <path id="Path_15" data-name="Path 15" d="M2.814.022S.59.144.1,1.427s.935,1.636,1.845.854c.643-.552.273-1.423.87-2.259Z" transform="matrix(0.914, -0.407, 0.407, 0.914, 605.126, 132.981)" fill="#7a031f"/>
            <path id="Path_16" data-name="Path 16" d="M2.815,2.671S.59,2.549.1,1.267,1.034-.369,1.944.413c.643.552.273,1.423.87,2.258Z" transform="translate(614.11 135.499) rotate(-151)" fill="#7a031f"/>
            <path id="Path_17" data-name="Path 17" d="M2.815,2.671S.59,2.549.1,1.267,1.034-.369,1.944.413c.643.552.273,1.423.87,2.258Z" transform="translate(620.872 132.284) rotate(171)" fill="#7a031f"/>
            <path id="Path_41" data-name="Path 41" d="M1308.425,69.913s-2.224.122-2.715,1.4.935,1.636,1.845.854c.643-.552.273-1.423.87-2.259Z" transform="translate(-704.977 59.938)" fill="#7a031f"/>
            <path id="Path_42" data-name="Path 42" d="M2.814.022S.59.144.1,1.427s.935,1.636,1.845.854c.643-.552.273-1.423.87-2.259Z" transform="matrix(0.914, -0.407, 0.407, 0.914, 605.126, 132.981)" fill="#7a031f"/>
            <path id="Path_43" data-name="Path 43" d="M2.815,2.671S.59,2.549.1,1.267,1.034-.369,1.944.413c.643.552.273,1.423.87,2.258Z" transform="translate(614.11 135.499) rotate(-151)" fill="#7a031f"/>
          </g>
          <g id="bao-2" data-name="bao" transform="translate(989.501 805.396)">
            <g transform="matrix(1, 0, 0, 1, 499, 44.9)" filter="url(#Ellipse_45-2)">
              <g id="Ellipse_45-4" data-name="Ellipse 45" transform="translate(79 80.1)" fill="#fff" stroke="#7a031f" stroke-width="2">
                <ellipse cx="32" cy="28.5" rx="32" ry="28.5" stroke="none"/>
                <ellipse cx="32" cy="28.5" rx="31" ry="27.5" fill="none"/>
              </g>
            </g>
            <g transform="matrix(1, 0, 0, 1, 499, 44.9)" filter="url(#Ellipse_18-2)">
              <g id="Ellipse_18-4" data-name="Ellipse 18" transform="translate(79 80.1)" fill="none" stroke="#7a031f" stroke-width="2">
                <ellipse cx="32" cy="28.5" rx="32" ry="28.5" stroke="none"/>
                <ellipse cx="32" cy="28.5" rx="31" ry="27.5" fill="none"/>
              </g>
            </g>
            <path id="Path_14-2" data-name="Path 14" d="M1308.425,69.913s-2.224.122-2.715,1.4.935,1.636,1.845.854c.643-.552.273-1.423.87-2.259Z" transform="translate(-704.977 59.938)" fill="#7a031f"/>
            <path id="Path_15-2" data-name="Path 15" d="M2.814.022S.59.144.1,1.427s.935,1.636,1.845.854c.643-.552.273-1.423.87-2.259Z" transform="matrix(0.914, -0.407, 0.407, 0.914, 605.126, 132.981)" fill="#7a031f"/>
            <path id="Path_16-2" data-name="Path 16" d="M2.815,2.671S.59,2.549.1,1.267,1.034-.369,1.944.413c.643.552.273,1.423.87,2.258Z" transform="translate(614.11 135.499) rotate(-151)" fill="#7a031f"/>
            <path id="Path_17-2" data-name="Path 17" d="M2.815,2.671S.59,2.549.1,1.267,1.034-.369,1.944.413c.643.552.273,1.423.87,2.258Z" transform="translate(620.872 132.284) rotate(171)" fill="#7a031f"/>
            <path id="Path_41-2" data-name="Path 41" d="M1308.425,69.913s-2.224.122-2.715,1.4.935,1.636,1.845.854c.643-.552.273-1.423.87-2.259Z" transform="translate(-704.977 59.938)" fill="#7a031f"/>
            <path id="Path_42-2" data-name="Path 42" d="M2.814.022S.59.144.1,1.427s.935,1.636,1.845.854c.643-.552.273-1.423.87-2.259Z" transform="matrix(0.914, -0.407, 0.407, 0.914, 605.126, 132.981)" fill="#7a031f"/>
            <path id="Path_43-2" data-name="Path 43" d="M2.815,2.671S.59,2.549.1,1.267,1.034-.369,1.944.413c.643.552.273,1.423.87,2.258Z" transform="translate(614.11 135.499) rotate(-151)" fill="#7a031f"/>
          </g>
        </g>
        <path id="Path_94" data-name="Path 94" d="M1578.32,965.6c-42.106,0-76.249-11.235-76.249-25.089,0-13.87,34.143-25.115,76.249-25.115,42.126,0,76.278,11.245,76.278,25.115,0,10.335-19.006,19.213-46.357,23.085A215.94,215.94,0,0,1,1578.32,965.6Z" transform="translate(-7.334)" fill="none" stroke="#7a031f" stroke-width="2"/>
      </g>
      <g id="plate" transform="translate(-1724.674 -692.671)">
        <g id="Group_259" data-name="Group 259" transform="translate(1744.674 692.672)">
          <g id="Group_254" data-name="Group 254" transform="translate(0)">
            <path id="Path_95" data-name="Path 95" d="M1932.34,742.621c3.066-17.4-32.623-38.233-79.716-46.54-47.066-8.3-87.726-.923-90.793,16.472-3.062,17.374,32.62,38.2,79.685,46.5C1888.613,767.359,1929.274,760,1932.34,742.621Z" transform="translate(-1754.137 -692.672)" fill="#fff" stroke="#7a031f" stroke-width="2"/>
            <path id="Path_96" data-name="Path 96" d="M1744.856,780.22c-3.056,17.347,32.62,38.2,79.682,46.5,47.1,8.3,87.764.913,90.824-16.437l7.515-42.613c-3.066,17.375-43.726,24.737-90.823,16.431-47.066-8.3-82.748-29.125-79.685-46.5Z" transform="translate(-1744.674 -717.722)" fill="#fff" stroke="#7a031f" stroke-width="2"/>
            <line id="Line_31" data-name="Line 31" y1="42.613" x2="7.515" transform="translate(170.688 49.95)" fill="#ffd99f" stroke="#7a031f" stroke-width="2"/>
          </g>
          <g id="Group_255" data-name="Group 255" transform="translate(13.099 4.756)" clip-path="url(#clip-path-4)">
            <path id="Path_99" data-name="Path 99" d="M1930.862,763.192c2.558-14.512-30.791-34.285-74.859-42.053-44.044-7.768-82.14-.591-84.7,13.917-2.555,14.488,31.091,32.547,75.135,40.311C1890.506,783.139,1928.311,777.68,1930.862,763.192Z" transform="translate(-1772.545 -711.527)" fill="none" stroke="#7a031f" stroke-width="2"/>
          </g>
        </g>
        <path id="Path_97" data-name="Path 97" d="M1834.728,812.306s1.745,15.9,20.209,22.086l2.14,2.665-2.672,15.152-3.429.985s-15.567-4.446-23.21,2.817" transform="translate(-46.325 -66.698)" fill="none" stroke="#7a031f" stroke-linecap="round" stroke-linejoin="round" stroke-width="2"/>
        <path id="Path_98" data-name="Path 98" d="M1933.971,747.3c2.558-14.512-31.1-32.574-75.164-40.349-44.045-7.764-81.835-2.3-84.393,12.213-2.558,14.491,31.088,32.54,75.132,40.311C1893.615,767.246,1931.412,761.791,1933.971,747.3Z" transform="translate(-16.504 -5.992)" fill="none" stroke="#7a031f" stroke-width="2.5"/>
        <path id="Path_101" data-name="Path 101" d="M1933.971,747.3c2.558-14.512-31.1-32.574-75.164-40.349-44.045-7.764-81.835-2.3-84.393,12.213-2.558,14.491,31.088,32.54,75.132,40.311C1893.615,767.246,1931.412,761.791,1933.971,747.3Z" transform="translate(-16.504 -5.992)" fill="none" stroke="#7a031f" stroke-width="2"/>
        <path id="Path_102" data-name="Path 102" d="M1852.624,696.081c-47.066-8.3-87.726-.923-90.793,16.472-3.062,17.374,32.62,38.2,79.685,46.5,47.1,8.307,87.757.944,90.823-16.431C1935.406,725.223,1899.717,704.388,1852.624,696.081Zm-10.118,57.4c-44.044-7.771-77.69-25.82-75.132-40.311,2.558-14.512,40.349-19.977,84.393-12.213,44.069,7.774,77.722,25.837,75.164,40.349C1924.371,755.8,1886.574,761.254,1842.505,753.483Z" transform="translate(-9.464 0)" fill="#fff" stroke="#7a031f" stroke-width="2"/>
        <path id="Path_107" data-name="Path 107" d="M1857.159,719.521c26.932-.308,48.99,22.664,49.318,51.361" transform="translate(-62.712 -14.967)" fill="none" stroke="#7a031f" stroke-width="2"/>
        <path id="Path_108" data-name="Path 108" d="M1804.992,728.715c26.6-.3,48.35,18.567,48.62,42.191" transform="translate(-33.628 -20.093)" fill="none" stroke="#7a031f" stroke-width="2"/>
        <path id="Path_109" data-name="Path 109" d="M1779.656,742.651c19.749-.208,35.889,12.548,36.088,28.519" transform="translate(-19.503 -27.863)" fill="none" stroke="#7a031f" stroke-width="2"/>
        <path id="Path_110" data-name="Path 110" d="M1912.388,718.553c26.932-.3,47.649,22.9,47.977,51.361" transform="translate(-93.503 -14)" fill="none" stroke="#7a031f" stroke-linecap="round" stroke-width="2"/>
        <path id="Path_111" data-name="Path 111" d="M2003.278,733.975c5.594,1.931,29.224,20.2,29.52,46.074" transform="translate(-144.176 -23.027)" fill="none" stroke="#7a031f" stroke-width="2"/>
        <path id="Path_112" data-name="Path 112" d="M2052.2,750.254s25.554,11.194,25.813,33.832" transform="translate(-171.45 -32.103)" fill="none" stroke="#7a031f" stroke-width="2"/>
        <path id="Path_113" data-name="Path 113" d="M1914.871,766.628l2.938-5.517s6.216-3.395,15.6-.9,12.687,7.75,12.687,7.75l.716,5.417" transform="translate(-94.888 -37.144)" fill="none" stroke="#7a031f" stroke-linecap="round" stroke-linejoin="round" stroke-width="12"/>
        <path id="Path_114" data-name="Path 114" d="M1914.871,766.628l2.938-5.517s6.216-3.395,15.6-.9,12.687,7.75,12.687,7.75l.716,5.417" transform="translate(-94.888 -37.144)" fill="none" stroke="#fffdfa" stroke-linecap="round" stroke-linejoin="round" stroke-width="7.5"/>
        <path id="Path_103" data-name="Path 103" d="M1872.6,856.708l-7.951-2.217,1.468-8.324,7.951,2.217Z" transform="translate(-66.887 -85.576)" fill="#fff" stroke="#7a031f" stroke-linecap="round" stroke-linejoin="round" stroke-width="2"/>
        <path id="Path_104" data-name="Path 104" d="M1806.168,820.376l-.767.757-.408,2.3.408,1.293,2.89,1.569-.4-1.307.4-2.3.764-.747Z" transform="translate(-33.629 -71.198)" fill="#fff" stroke="#7a031f" stroke-linecap="round" stroke-linejoin="round" stroke-width="2"/>
        <path id="Path_105" data-name="Path 105" d="M1798.692,862.775l-.764.757-.4,2.306.4,1.293,2.9,1.566-.408-1.3.408-2.306.764-.743Z" transform="translate(-29.465 -94.835)" fill="#fff" stroke="#7a031f" stroke-linecap="round" stroke-linejoin="round" stroke-width="2"/>
        <path id="Path_106" data-name="Path 106" d="M1865.717,891.695l-7.944-2.217,2.033-11.493,7.936,2.216Z" transform="translate(-63.055 -103.315)" fill="#fff" stroke="#7a031f" stroke-linecap="round" stroke-linejoin="round" stroke-width="2"/>
      </g>
    </g>
  </g>
</svg>
