<svg xmlns="http://www.w3.org/2000/svg" width="30" height="26.259" viewBox="0 0 30 26.259">
  <g id="Group_305" data-name="Group 305" transform="translate(-749.497 -128)">
    <g id="bao1" transform="translate(749.497 128)">
      <g id="Path_115" data-name="Path 115" transform="translate(0 0.624)" fill="#fff">
        <path d="M 14.82470035552979 24.6350269317627 C 7.201730251312256 24.6350269317627 1.000000476837158 19.24431610107422 1.000000476837158 12.61822700500488 C 1.000000476837158 4.551177024841309 8.605040550231934 1.623777031898499 14.98487091064453 0.5885270237922668 C 15.85514068603516 0.4473070204257965 16.71335029602051 0.3757070004940033 17.5356502532959 0.3757070004940033 C 20.74455070495605 0.3757070004940033 23.51338005065918 1.456246972084045 25.54281044006348 3.500517129898071 C 27.79997062683105 5.774177074432373 29.02758026123047 9.147787094116211 28.99952125549316 12.99988746643066 C 28.97179985046387 16.8039379119873 27.5789909362793 19.76343727111816 24.85978126525879 21.79617691040039 C 22.37540054321289 23.65336608886719 18.90532112121582 24.6350269317627 14.82470035552979 24.6350269317627 Z" stroke="none"/>
        <path d="M 17.5356502532959 1.375707626342773 C 16.76682090759277 1.375707626342773 15.96251010894775 1.442966461181641 15.14505004882812 1.575616836547852 C 10.80329132080078 2.280147552490234 7.469141006469727 3.60081672668457 5.235210418701172 5.500957489013672 C 3.058250427246094 7.35264778137207 2 9.680717468261719 2 12.61822700500488 C 2 18.69290733337402 7.753139495849609 23.6350269317627 14.82470035552979 23.6350269317627 C 18.68782043457031 23.6350269317627 21.95085906982422 22.72219657897949 24.26103973388672 20.9952278137207 C 26.71640968322754 19.15971755981445 27.97422981262207 16.46724700927734 27.99954032897949 12.99260711669922 C 28.02565002441406 9.408987045288086 26.90113067626953 6.288167953491211 24.83312034606934 4.205047607421875 C 22.99559020996094 2.354076385498047 20.47217178344727 1.375707626342773 17.5356502532959 1.375707626342773 M 17.5356559753418 -0.6242961883544922 C 25.23597145080566 -0.6242961883544922 30.05669593811035 5.155725479125977 29.99949073791504 13.00717735290527 C 29.93584060668945 21.74320602416992 23.01214981079102 25.6350269317627 14.82470035552979 25.6350269317627 C 6.637241363525391 25.6350269317627 0 19.80720710754395 0 12.61822700500488 C 0 5.429256439208984 5.563501358032227 1.104236602783203 14.82470035552979 -0.3985633850097656 C 15.76246356964111 -0.5507335662841797 16.66809463500977 -0.6242961883544922 17.5356559753418 -0.6242961883544922 Z" stroke="none" fill="#7a031f"/>
      </g>
      <g id="dot" transform="translate(3.934 3.117)">
        <g id="Ellipse_48" data-name="Ellipse 48" transform="translate(11.889 11.74)" fill="none" stroke="#7a031f" stroke-width="1">
          <ellipse cx="0.983" cy="1.18" rx="0.983" ry="1.18" stroke="none"/>
          <ellipse cx="0.983" cy="1.18" rx="0.483" ry="0.68" fill="none"/>
        </g>
        <g id="Ellipse_54" data-name="Ellipse 54" transform="translate(0 7.164)" fill="none" stroke="#7a031f" stroke-width="1">
          <ellipse cx="0.787" cy="0.983" rx="0.787" ry="0.983" stroke="none"/>
          <ellipse cx="0.787" cy="0.983" rx="0.287" ry="0.483" fill="none"/>
        </g>
        <g id="Ellipse_49" data-name="Ellipse 49" transform="translate(20.234 10.442) rotate(50)" fill="none" stroke="#7a031f" stroke-width="1">
          <ellipse cx="1.667" cy="1.111" rx="1.667" ry="1.111" stroke="none"/>
          <ellipse cx="1.667" cy="1.111" rx="1.167" ry="0.611" fill="none"/>
        </g>
        <g id="Ellipse_53" data-name="Ellipse 53" transform="matrix(-0.788, 0.616, -0.616, -0.788, 10.555, 17.522)" fill="none" stroke="#7a031f" stroke-width="1">
          <ellipse cx="1.944" cy="1.389" rx="1.944" ry="1.389" stroke="none"/>
          <ellipse cx="1.944" cy="1.389" rx="1.444" ry="0.889" fill="none"/>
        </g>
        <g id="Ellipse_48-2" data-name="Ellipse 48" transform="translate(11.889 3.806)" fill="none" stroke="#7a031f" stroke-width="1">
          <ellipse cx="0.983" cy="1.18" rx="0.983" ry="1.18" stroke="none"/>
          <ellipse cx="0.983" cy="1.18" rx="0.483" ry="0.68" fill="none"/>
        </g>
        <g id="Ellipse_54-2" data-name="Ellipse 54" transform="translate(10.783 6.62)" fill="none" stroke="#7a031f" stroke-width="1">
          <ellipse cx="0.787" cy="0.787" rx="0.787" ry="0.787" stroke="none"/>
          <ellipse cx="0.787" cy="0.787" rx="0.287" ry="0.287" fill="none"/>
        </g>
        <g id="Ellipse_49-2" data-name="Ellipse 49" transform="translate(16.644 1.839) rotate(50)" fill="none" stroke="#7a031f" stroke-width="1">
          <ellipse cx="1.667" cy="1.111" rx="1.667" ry="1.111" stroke="none"/>
          <ellipse cx="1.667" cy="1.111" rx="1.167" ry="0.611" fill="none"/>
        </g>
        <g id="Ellipse_53-2" data-name="Ellipse 53" transform="matrix(-0.788, 0.616, -0.616, -0.788, 9.376, 6.14)" fill="none" stroke="#7a031f" stroke-width="1">
          <ellipse cx="1.944" cy="1.389" rx="1.944" ry="1.389" stroke="none"/>
          <ellipse cx="1.944" cy="1.389" rx="1.444" ry="0.889" fill="none"/>
        </g>
        <ellipse id="Ellipse_50" data-name="Ellipse 50" cx="1.667" cy="1.389" rx="1.667" ry="1.389" transform="matrix(0.788, -0.616, 0.616, 0.788, 3.897, 3.484)" fill="#7a031f"/>
        <ellipse id="Ellipse_51" data-name="Ellipse 51" cx="0.833" cy="0.833" rx="0.833" ry="0.833" transform="matrix(0.788, -0.616, 0.616, 0.788, 9.881, 1.026)" fill="#7a031f"/>
        <ellipse id="Ellipse_52" data-name="Ellipse 52" cx="1.111" cy="1.111" rx="1.111" ry="1.111" transform="matrix(0.788, -0.616, 0.616, 0.788, 16.31, 7.813)" fill="#7a031f"/>
        <ellipse id="Ellipse_50-2" data-name="Ellipse 50" cx="1.667" cy="1.389" rx="1.667" ry="1.389" transform="matrix(0.788, -0.616, 0.616, 0.788, 3.897, 11.76)" fill="#7a031f"/>
        <ellipse id="Ellipse_51-2" data-name="Ellipse 51" cx="0.833" cy="0.833" rx="0.833" ry="0.833" transform="matrix(0.788, -0.616, 0.616, 0.788, 1.248, 15.705)" fill="#7a031f"/>
        <ellipse id="Ellipse_52-2" data-name="Ellipse 52" cx="1.111" cy="1.111" rx="1.111" ry="1.111" transform="matrix(0.788, -0.616, 0.616, 0.788, 13.675, 15.553)" fill="#7a031f"/>
      </g>
    </g>
  </g>
</svg>
