<svg xmlns="http://www.w3.org/2000/svg" width="36.23" height="26.226" viewBox="0 0 36.23 26.226">
  <g id="Group_317" data-name="Group 317" transform="translate(-443.582 -132)">
    <g id="Group_308" data-name="Group 308" transform="translate(-294.141 4)">
      <g id="bao1" transform="translate(749.497 128)">
        <g id="Path_115" data-name="Path 115" transform="translate(0 0.624)" fill="#fff">
          <path d="M 12.08560276031494 19.78320693969727 C 5.972982406616211 19.78320693969727 1.000002384185791 15.47139739990234 1.000002384185791 10.17146682739258 C 1.000002384185791 7.616597175598145 1.962052464485168 5.502857208251953 3.859442472457886 3.888987064361572 C 5.769492626190186 2.264327049255371 8.591062545776367 1.139867067337036 12.24577236175537 0.5468170046806335 C 12.9454927444458 0.4332770109176636 13.63517284393311 0.3757070302963257 14.29566287994385 0.3757070302963257 C 16.86134338378906 0.3757070302963257 19.0732421875 1.237717032432556 20.69225311279297 2.868556976318359 C 22.49741172790527 4.68692684173584 23.47916221618652 7.390497207641602 23.45665168762207 10.48126697540283 C 23.43449211120605 13.52158737182617 22.32397270202637 15.88493728637695 20.15592193603516 17.50565719604492 C 18.16275215148926 18.99564743041992 15.37208271026611 19.78320693969727 12.08560276031494 19.78320693969727 Z" stroke="none"/>
          <path d="M 14.29566287994385 1.375707626342773 C 13.68867206573486 1.375707626342773 13.05287265777588 1.428937911987305 12.40595245361328 1.533906936645508 C 8.933902740478516 2.097307205200195 6.276432037353516 3.145956993103027 4.507343292236328 4.650707244873047 C 2.820161819458008 6.085786819458008 2.000001907348633 7.891647338867188 2.000001907348633 10.17146682739258 C 2.000001907348633 14.919997215271 6.524381637573242 18.78320693969727 12.08560276031494 18.78320693969727 C 15.15458202362061 18.78320693969727 17.73821258544922 18.06447601318359 19.55717277526855 16.7047176361084 C 21.46139144897461 15.28122711181641 22.43692207336426 13.18490695953369 22.45666313171387 10.47397708892822 C 22.47723197937012 7.651697158813477 21.59858322143555 5.20091724395752 19.98257255554199 3.573097229003906 C 18.55547332763672 2.135557174682617 16.58896255493164 1.375707626342773 14.29566287994385 1.375707626342773 M 14.2956657409668 -0.624298095703125 C 20.57323455810547 -0.624298095703125 24.50324821472168 4.087773323059082 24.45661163330078 10.48854732513428 C 24.40473175048828 17.6104679107666 18.76029205322266 20.78320693969727 12.08560276031494 20.78320693969727 C 5.41090202331543 20.78320693969727 1.9073486328125e-06 16.03216743469238 1.9073486328125e-06 10.17146682739258 C 1.9073486328125e-06 4.31076717376709 4.535552978515625 0.7848663330078125 12.08560276031494 -0.4402732849121094 C 12.85010051727295 -0.5643272399902344 13.58839988708496 -0.624298095703125 14.2956657409668 -0.624298095703125 Z" stroke="none" fill="#7a031f"/>
        </g>
        <g id="dot" transform="translate(3.207 2.541)">
          <g id="Ellipse_48" data-name="Ellipse 48" transform="translate(9.693 9.571)" fill="none" stroke="#7a031f" stroke-width="1">
            <ellipse cx="0.802" cy="0.962" rx="0.802" ry="0.962" stroke="none"/>
            <ellipse cx="0.802" cy="0.962" rx="0.302" ry="0.462" fill="none"/>
          </g>
          <g id="Ellipse_54" data-name="Ellipse 54" transform="translate(0 5.84)" fill="none" stroke="#7a031f" stroke-width="1">
            <ellipse cx="0.641" cy="0.802" rx="0.641" ry="0.802" stroke="none"/>
            <ellipse cx="0.641" cy="0.802" rx="0.141" ry="0.302" fill="none"/>
          </g>
          <g id="Ellipse_49" data-name="Ellipse 49" transform="translate(16.495 8.513) rotate(50)" fill="none" stroke="#7a031f" stroke-width="1">
            <ellipse cx="1.359" cy="0.906" rx="1.359" ry="0.906" stroke="none"/>
            <ellipse cx="1.359" cy="0.906" rx="0.859" ry="0.406" fill="none"/>
          </g>
          <g id="Ellipse_53" data-name="Ellipse 53" transform="matrix(-0.788, 0.616, -0.616, -0.788, 8.605, 14.284)" fill="none" stroke="#7a031f" stroke-width="1">
            <ellipse cx="1.585" cy="1.132" rx="1.585" ry="1.132" stroke="none"/>
            <ellipse cx="1.585" cy="1.132" rx="1.085" ry="0.632" fill="none"/>
          </g>
          <g id="Ellipse_48-2" data-name="Ellipse 48" transform="translate(9.693 3.102)" fill="none" stroke="#7a031f" stroke-width="1">
            <ellipse cx="0.802" cy="0.962" rx="0.802" ry="0.962" stroke="none"/>
            <ellipse cx="0.802" cy="0.962" rx="0.302" ry="0.462" fill="none"/>
          </g>
          <g id="Ellipse_54-2" data-name="Ellipse 54" transform="translate(8.791 5.397)" fill="none" stroke="#7a031f" stroke-width="1">
            <ellipse cx="0.641" cy="0.641" rx="0.641" ry="0.641" stroke="none"/>
            <ellipse cx="0.641" cy="0.641" rx="0.141" ry="0.141" fill="none"/>
          </g>
          <g id="Ellipse_49-2" data-name="Ellipse 49" transform="translate(13.569 1.499) rotate(50)" fill="none" stroke="#7a031f" stroke-width="1">
            <ellipse cx="1.359" cy="0.906" rx="1.359" ry="0.906" stroke="none"/>
            <ellipse cx="1.359" cy="0.906" rx="0.859" ry="0.406" fill="none"/>
          </g>
          <g id="Ellipse_53-2" data-name="Ellipse 53" transform="matrix(-0.788, 0.616, -0.616, -0.788, 7.644, 5.006)" fill="none" stroke="#7a031f" stroke-width="1">
            <ellipse cx="1.585" cy="1.132" rx="1.585" ry="1.132" stroke="none"/>
            <ellipse cx="1.585" cy="1.132" rx="1.085" ry="0.632" fill="none"/>
          </g>
          <ellipse id="Ellipse_50" data-name="Ellipse 50" cx="1.359" cy="1.132" rx="1.359" ry="1.132" transform="matrix(0.788, -0.616, 0.616, 0.788, 3.177, 2.84)" fill="#7a031f"/>
          <ellipse id="Ellipse_51" data-name="Ellipse 51" cx="0.679" cy="0.679" rx="0.679" ry="0.679" transform="matrix(0.788, -0.616, 0.616, 0.788, 8.055, 0.837)" fill="#7a031f"/>
          <ellipse id="Ellipse_52" data-name="Ellipse 52" cx="0.906" cy="0.906" rx="0.906" ry="0.906" transform="matrix(0.788, -0.616, 0.616, 0.788, 13.296, 6.369)" fill="#7a031f"/>
          <ellipse id="Ellipse_50-2" data-name="Ellipse 50" cx="1.359" cy="1.132" rx="1.359" ry="1.132" transform="matrix(0.788, -0.616, 0.616, 0.788, 3.177, 9.587)" fill="#7a031f"/>
          <ellipse id="Ellipse_51-2" data-name="Ellipse 51" cx="0.679" cy="0.679" rx="0.679" ry="0.679" transform="matrix(0.788, -0.616, 0.616, 0.788, 1.018, 12.803)" fill="#7a031f"/>
          <ellipse id="Ellipse_52-2" data-name="Ellipse 52" cx="0.906" cy="0.906" rx="0.906" ry="0.906" transform="matrix(0.788, -0.616, 0.616, 0.788, 11.148, 12.679)" fill="#7a031f"/>
        </g>
      </g>
    </g>
    <g id="bao2" transform="translate(443.582 135.299)">
      <g id="Ellipse_2" data-name="Ellipse 2" transform="translate(0 0)" fill="#fff" stroke="#7a031f" stroke-width="2">
        <ellipse cx="12.773" cy="11.463" rx="12.773" ry="11.463" stroke="none"/>
        <ellipse cx="12.773" cy="11.463" rx="11.773" ry="10.463" fill="none"/>
      </g>
      <path id="Path_120" data-name="Path 120" d="M.575,0c.318,0,.575.849.575,1.167A.575.575,0,1,1,0,1.167C0,.849.258,0,.575,0Z" transform="translate(14.691 4.548) rotate(-48)" fill="#7a031f"/>
      <path id="Path_121" data-name="Path 121" d="M.575,0c.318,0,.575.849.575,1.167A.575.575,0,1,1,0,1.167C0,.849.258,0,.575,0Z" transform="translate(14.283 3.838) rotate(-104)" fill="#7a031f"/>
      <path id="Path_122" data-name="Path 122" d="M.575,0c.318,0,.575.849.575,1.167A.575.575,0,1,1,0,1.167C0,.849.258,0,.575,0Z" transform="matrix(-0.326, 0.946, -0.946, -0.326, 12.835, 2.808)" fill="#7a031f"/>
      <path id="Path_123" data-name="Path 123" d="M.575,0c.318,0,.575.849.575,1.167A.575.575,0,0,1,0,1.167C0,.849.258,0,.575,0Z" transform="matrix(0.629, 0.777, -0.777, 0.629, 12.63, 3.707)" fill="#7a031f"/>
    </g>
  </g>
</svg>
