<svg xmlns="http://www.w3.org/2000/svg" width="30" height="26.966" viewBox="0 0 30 26.966">
  <g id="Group_304" data-name="Group 304" transform="translate(-589 -129.256)">
    <g id="bao3" transform="translate(589 129.256)">
      <g id="Ellipse_45" data-name="Ellipse 45" transform="translate(0)" fill="#fff" stroke="#7a031f" stroke-width="2">
        <ellipse cx="15" cy="13.483" rx="15" ry="13.483" stroke="none"/>
        <ellipse cx="15" cy="13.483" rx="14" ry="12.483" fill="none"/>
      </g>
      <path id="Path_14" data-name="Path 14" d="M1311.083,70.933a19.206,19.206,0,0,0-2.926,2.767c-1.621,1.754-.749,2.7,1.286.848,1.437-1.309,2.045-2.588,3.38-4.571C1312.906,69.859,1312.031,70.185,1311.083,70.933Z" transform="translate(-1300.285 -67.217)" fill="#7a031f"/>
      <path id="Path_119" data-name="Path 119" d="M1.973,1.561A8.01,8.01,0,0,0,.241,3.576c-.864,1.3.816,1.157,1.535.228.874-1.077,1.347-1.869,2.646-3.8A17.94,17.94,0,0,0,1.973,1.561Z" transform="translate(10.883 4.916) rotate(-21)" fill="#7a031f"/>
      <path id="Path_16" data-name="Path 16" d="M4.253,3.83S1.119,3.414.3,1.3.43-.006,1.948,1.281a10.671,10.671,0,0,1,2.3,2.549Z" transform="translate(18.02 9.254) rotate(-151)" fill="#7a031f"/>
      <path id="Path_17" data-name="Path 17" d="M3.961,5.663S1.182,3.927.257,2.206A1.372,1.372,0,0,1,1.446.023c.1,2,1.4,3.6,2.515,5.64Z" transform="translate(22.868 7.864) rotate(171)" fill="#7a031f"/>
    </g>
  </g>
</svg>
