<svg xmlns="http://www.w3.org/2000/svg" width="26.688" height="27.455" viewBox="0 0 26.688 27.455">
  <g id="Group_43" data-name="Group 43" transform="translate(587.151 -233.035) rotate(112)">
    <path id="Path_25" data-name="Path 25" d="M1385.1-225.739c1.907,1.615,4,3.39,2.652,7.584-2,4.582-8.216,8.234-10.153,8.924s-5.511,1.341-8.072-1.4a6.471,6.471,0,0,1-.451-8.361c1.554-2.259,6.229-7.031,8.523-8.045S1381.85-228.49,1385.1-225.739Z" transform="translate(-934.105 657.711)" fill="#d19e9e" stroke="#fff" stroke-width="1"/>
    <path id="Path_26" data-name="Path 26" d="M1378.709-223.482c-.751-.18-8.678,6.883-8.11,7.707s8.252-6.228,8.449-6.773A.871.871,0,0,0,1378.709-223.482Z" transform="translate(-934.204 657.685)" fill="none" stroke="#fff" stroke-width="1"/>
  </g>
</svg>
