<svg xmlns="http://www.w3.org/2000/svg" width="300.981" height="196.348" viewBox="0 0 300.981 196.348">
  <g id="illust-material" transform="translate(-207.239 -2304.158)">
    <g id="azuki" transform="translate(352.697 2439.18)">
      <g id="Group_281" data-name="Group 281" transform="matrix(-0.974, -0.225, 0.225, -0.974, 56.398, 22.616)">
        <path id="Path_25" data-name="Path 25" d="M16.837,2.021c1.852,1.568,3.882,3.292,2.574,7.363-1.946,4.449-7.977,7.994-9.857,8.664s-5.35,1.3-7.837-1.364A6.282,6.282,0,0,1,1.28,8.568C2.789,6.374,7.327,1.741,9.554.757S13.682-.65,16.837,2.021Z" fill="#fff" stroke="#7a031f" stroke-width="3"/>
        <path id="Path_26" data-name="Path 26" d="M8.468,0C7.687-.184-.561,7.165.03,8.022S8.616,1.542,8.821.975A.907.907,0,0,0,8.468,0Z" transform="translate(2.714 4.182)" fill="#7a031f"/>
      </g>
      <g id="Group_283" data-name="Group 283" transform="translate(78.371 1.118) rotate(79)">
        <path id="Path_25-2" data-name="Path 25" d="M16.837,2.021c1.852,1.568,3.882,3.292,2.574,7.363-1.946,4.449-7.977,7.994-9.857,8.664s-5.35,1.3-7.837-1.364A6.282,6.282,0,0,1,1.28,8.568C2.789,6.374,7.327,1.741,9.554.757S13.682-.65,16.837,2.021Z" transform="translate(0 0)" fill="#fff" stroke="#7a031f" stroke-width="3"/>
        <path id="Path_26-2" data-name="Path 26" d="M8.468,0C7.687-.184-.561,7.165.03,8.022S8.616,1.542,8.821.975A.907.907,0,0,0,8.468,0Z" transform="translate(2.714 4.182)" fill="#7a031f"/>
      </g>
      <g id="Group_285" data-name="Group 285" transform="translate(92.65 39.491) rotate(-158)">
        <path id="Path_25-3" data-name="Path 25" d="M16.837,2.021c1.852,1.568,3.882,3.292,2.574,7.363-1.946,4.449-7.977,7.994-9.857,8.664s-5.35,1.3-7.837-1.364A6.282,6.282,0,0,1,1.28,8.568C2.789,6.374,7.327,1.741,9.554.757S13.682-.65,16.837,2.021Z" fill="#fff" stroke="#7a031f" stroke-width="3"/>
        <path id="Path_26-3" data-name="Path 26" d="M8.468,0C7.687-.184-.561,7.165.03,8.022S8.616,1.542,8.821.975A.907.907,0,0,0,8.468,0Z" transform="translate(2.714 4.182)" fill="#7a031f"/>
      </g>
      <g id="Group_282" data-name="Group 282" transform="matrix(0.966, 0.259, -0.259, 0.966, 24.519, 1.062)">
        <path id="Path_25-4" data-name="Path 25" d="M16.837,2.021c1.852,1.568,3.882,3.292,2.574,7.363-1.946,4.449-7.977,7.994-9.857,8.664s-5.35,1.3-7.837-1.364A6.282,6.282,0,0,1,1.28,8.568C2.789,6.374,7.327,1.741,9.554.757S13.682-.65,16.837,2.021Z" fill="#fff" stroke="#7a031f" stroke-width="3"/>
        <path id="Path_26-4" data-name="Path 26" d="M8.468,0C7.687-.184-.561,7.165.03,8.022S8.616,1.542,8.821.975A.907.907,0,0,0,8.468,0Z" transform="translate(2.714 4.182)" fill="#7a031f"/>
      </g>
      <g id="Group_279" data-name="Group 279" transform="translate(65.323 6.395) rotate(79)">
        <path id="Path_25-5" data-name="Path 25" d="M16.837,2.021c1.852,1.568,3.882,3.292,2.574,7.363-1.946,4.449-7.977,7.994-9.857,8.664s-5.35,1.3-7.837-1.364A6.282,6.282,0,0,1,1.28,8.568C2.789,6.374,7.327,1.741,9.554.757S13.682-.65,16.837,2.021Z" transform="translate(0 0)" fill="#fff" stroke="#7a031f" stroke-width="3"/>
        <path id="Path_26-5" data-name="Path 26" d="M8.468,0C7.687-.184-.561,7.165.03,8.022S8.616,1.542,8.821.975A.907.907,0,0,0,8.468,0Z" transform="translate(2.714 4.182)" fill="#7a031f"/>
      </g>
      <g id="Group_23" data-name="Group 23" transform="translate(49.492 9.034) rotate(79)">
        <path id="Path_25-6" data-name="Path 25" d="M16.837,2.021c1.852,1.568,3.882,3.292,2.574,7.363-1.946,4.449-7.977,7.994-9.857,8.664s-5.35,1.3-7.837-1.364A6.282,6.282,0,0,1,1.28,8.568C2.789,6.374,7.327,1.741,9.554.757S13.682-.65,16.837,2.021Z" transform="translate(0 0)" fill="#fff" stroke="#7a031f" stroke-width="3"/>
        <path id="Path_26-6" data-name="Path 26" d="M8.468,0C7.687-.184-.561,7.165.03,8.022S8.616,1.542,8.821.975A.907.907,0,0,0,8.468,0Z" transform="translate(2.714 4.182)" fill="#7a031f"/>
      </g>
      <g id="Group_278" data-name="Group 278" transform="translate(60.894 13.582) rotate(42)">
        <path id="Path_25-7" data-name="Path 25" d="M16.837,2.021c1.852,1.568,3.882,3.292,2.574,7.363-1.946,4.449-7.977,7.994-9.857,8.664s-5.35,1.3-7.837-1.364A6.282,6.282,0,0,1,1.28,8.568C2.789,6.374,7.327,1.741,9.554.757S13.682-.65,16.837,2.021Z" fill="#fff" stroke="#7a031f" stroke-width="3"/>
        <path id="Path_26-7" data-name="Path 26" d="M8.468,0C7.687-.184-.561,7.165.03,8.022S8.616,1.542,8.821.975A.907.907,0,0,0,8.468,0Z" transform="translate(2.714 4.182)" fill="#7a031f"/>
      </g>
      <g id="Group_276" data-name="Group 276" transform="translate(28.016 13.538) rotate(48)">
        <path id="Path_25-8" data-name="Path 25" d="M16.837,2.021c1.852,1.568,3.882,3.292,2.574,7.363-1.946,4.449-7.977,7.994-9.857,8.664s-5.35,1.3-7.837-1.364A6.282,6.282,0,0,1,1.28,8.568C2.789,6.374,7.327,1.741,9.554.757S13.682-.65,16.837,2.021Z" fill="#fff" stroke="#7a031f" stroke-width="3"/>
        <path id="Path_26-8" data-name="Path 26" d="M8.468,0C7.687-.184-.561,7.165.03,8.022S8.616,1.542,8.821.975A.907.907,0,0,0,8.468,0Z" transform="translate(2.714 4.182)" fill="#7a031f"/>
      </g>
      <g id="Group_277" data-name="Group 277" transform="matrix(-0.94, -0.342, 0.342, -0.94, 49.686, 44.562)">
        <path id="Path_25-9" data-name="Path 25" d="M16.837,2.021c1.852,1.568,3.882,3.292,2.574,7.363-1.946,4.449-7.977,7.994-9.857,8.664s-5.35,1.3-7.837-1.364A6.282,6.282,0,0,1,1.28,8.568C2.789,6.374,7.327,1.741,9.554.757S13.682-.65,16.837,2.021Z" fill="#fff" stroke="#7a031f" stroke-width="3"/>
        <path id="Path_26-9" data-name="Path 26" d="M8.468,0C7.687-.184-.561,7.165.03,8.022S8.616,1.542,8.821.975A.907.907,0,0,0,8.468,0Z" transform="translate(2.714 4.182)" fill="#7a031f"/>
      </g>
      <g id="Group_286" data-name="Group 286" transform="matrix(0.545, 0.839, -0.839, 0.545, 15.627, 24.305)">
        <path id="Path_25-10" data-name="Path 25" d="M16.837,2.021c1.852,1.568,3.882,3.292,2.574,7.363-1.946,4.449-7.977,7.994-9.857,8.664s-5.35,1.3-7.837-1.364A6.282,6.282,0,0,1,1.28,8.568C2.789,6.374,7.327,1.741,9.554.757S13.682-.65,16.837,2.021Z" fill="#fff" stroke="#7a031f" stroke-width="3"/>
        <path id="Path_26-10" data-name="Path 26" d="M8.468,0C7.687-.184-.561,7.165.03,8.022S8.616,1.542,8.821.975A.907.907,0,0,0,8.468,0Z" transform="translate(2.714 4.182)" fill="#7a031f"/>
      </g>
      <g id="Group_287" data-name="Group 287" transform="translate(37.013 32.005) rotate(47)">
        <path id="Path_25-11" data-name="Path 25" d="M16.837,2.021c1.852,1.568,3.882,3.292,2.574,7.363-1.946,4.449-7.977,7.994-9.857,8.664s-5.35,1.3-7.837-1.364A6.282,6.282,0,0,1,1.28,8.568C2.789,6.374,7.327,1.741,9.554.757S13.682-.65,16.837,2.021Z" fill="#fff" stroke="#7a031f" stroke-width="3"/>
        <path id="Path_26-11" data-name="Path 26" d="M8.468,0C7.687-.184-.561,7.165.03,8.022S8.616,1.542,8.821.975A.907.907,0,0,0,8.468,0Z" transform="translate(6.285 8.285)" fill="#7a031f"/>
      </g>
      <g id="Group_284" data-name="Group 284" transform="translate(65.087 54.532) rotate(-152)">
        <path id="Path_25-12" data-name="Path 25" d="M16.837,2.021c1.852,1.568,3.882,3.292,2.574,7.363-1.946,4.449-7.977,7.994-9.857,8.664s-5.35,1.3-7.837-1.364A6.282,6.282,0,0,1,1.28,8.568C2.789,6.374,7.327,1.741,9.554.757S13.682-.65,16.837,2.021Z" fill="#fff" stroke="#7a031f" stroke-width="3"/>
        <path id="Path_26-12" data-name="Path 26" d="M8.468,0C7.687-.184-.561,7.165.03,8.022S8.616,1.542,8.821.975A.907.907,0,0,0,8.468,0Z" transform="translate(2.714 4.182)" fill="#7a031f"/>
      </g>
    </g>
    <g id="ma" transform="translate(284.983 2421.979)">
      <path id="Path_203" data-name="Path 203" d="M14.3.124C18.95,2.7,12.521,24.654,3.156,18.773-3.511,14.586,1.235,3.92,9.487,3.559,11.555,2.155,12.967-.618,14.3.124Z" transform="translate(36.413 16.194) rotate(-91)" fill="#fff" stroke="#7a031f" stroke-width="3"/>
      <path id="Path_202" data-name="Path 202" d="M14.3,19.646C18.95,17.071,12.521-4.884,3.156,1-3.511,5.184,1.235,15.85,9.487,16.211,11.555,17.615,12.967,20.388,14.3,19.646Z" transform="matrix(-0.574, 0.819, -0.819, -0.574, 49.33, 12.552)" fill="#fff" stroke="#7a031f" stroke-width="3"/>
      <path id="Path_208" data-name="Path 208" d="M14.3.124C18.95,2.7,12.521,24.654,3.156,18.773-3.511,14.586,1.235,3.92,9.487,3.559,11.555,2.155,12.967-.618,14.3.124Z" transform="translate(45.937 5.918) rotate(13)" fill="#fff" stroke="#7a031f" stroke-width="3"/>
      <path id="Path_210" data-name="Path 210" d="M14.3.124C18.95,2.7,12.521,24.654,3.156,18.773-3.511,14.586,1.235,3.92,9.487,3.559,11.555,2.155,12.967-.618,14.3.124Z" transform="translate(1.382 49.836) rotate(-95)" fill="#fff" stroke="#7a031f" stroke-width="3"/>
      <path id="Path_204" data-name="Path 204" d="M14.3.124C18.95,2.7,12.521,24.654,3.156,18.773-3.511,14.586,1.235,3.92,9.487,3.559,11.555,2.155,12.967-.618,14.3.124Z" transform="translate(29.563 33.345) rotate(-91)" fill="#fff" stroke="#7a031f" stroke-width="3"/>
      <path id="Path_56" data-name="Path 56" d="M14.3,19.646C18.95,17.071,12.521-4.884,3.156,1-3.511,5.184,1.235,15.85,9.487,16.211,11.555,17.615,12.967,20.388,14.3,19.646Z" transform="translate(7.248 30.402) rotate(-82)" fill="#fff" stroke="#7a031f" stroke-width="3"/>
      <path id="Path_207" data-name="Path 207" d="M14.3,19.646C18.95,17.071,12.521-4.884,3.156,1-3.511,5.184,1.235,15.85,9.487,16.211,11.555,17.615,12.967,20.388,14.3,19.646Z" transform="translate(45.817 33.882) rotate(126)" fill="#fff" stroke="#7a031f" stroke-width="3"/>
      <path id="Path_209" data-name="Path 209" d="M14.3,19.646C18.95,17.071,12.521-4.884,3.156,1-3.511,5.184,1.235,15.85,9.487,16.211,11.555,17.615,12.967,20.388,14.3,19.646Z" transform="translate(33.551 55.429) rotate(-97)" fill="#fff" stroke="#7a031f" stroke-width="3"/>
      <path id="Path_205" data-name="Path 205" d="M14.3,19.646C18.95,17.071,12.521-4.884,3.156,1-3.511,5.184,1.235,15.85,9.487,16.211,11.555,17.615,12.967,20.388,14.3,19.646Z" transform="matrix(0.682, -0.731, 0.731, 0.682, 54.319, 21.665)" fill="#fff" stroke="#7a031f" stroke-width="3"/>
      <path id="Path_206" data-name="Path 206" d="M14.3.124C18.95,2.7,12.521,24.654,3.156,18.773-3.511,14.586,1.235,3.92,9.487,3.559,11.555,2.155,12.967-.618,14.3.124Z" transform="translate(43.005 34.171) rotate(-68)" fill="#fff" stroke="#7a031f" stroke-width="3"/>
    </g>
    <g id="Group_289" data-name="Group 289" transform="matrix(0.985, -0.174, 0.174, 0.985, 265.446, 2340.689)">
      <path id="Path_156" data-name="Path 156" d="M150.71,20.969C146.718,19.934,133.278,2.822,105.674.617S50.458,1.944,31.311,14.009,8.676,32.132,3.622,35.917s-5.813,10.14,4.232,11.46S29.748,64.259,41.285,68.829s45.783,4.033,64.389,0,37.917-27.637,42.5-29.914,13.584-6.133,15.554-11.869-2.625-7.5-5.9-7.028S154.7,22,150.71,20.969Z" transform="translate(0 0)" fill="#fff" stroke="#7a031f" stroke-width="3"/>
      <path id="Path_157" data-name="Path 157" d="M3.277,0c-3.72-.083-4.977,7.245,0,8.968" transform="translate(51.813 15.155)" fill="#fff" stroke="#7a031f" stroke-linecap="round" stroke-width="3"/>
      <path id="Path_158" data-name="Path 158" d="M3.277,0c-3.72-.083-4.977,7.245,0,8.968" transform="translate(105.817 10.559)" fill="#fff" stroke="#7a031f" stroke-linecap="round" stroke-width="3"/>
      <path id="Path_159" data-name="Path 159" d="M3.277,0c-3.72-.083-4.977,7.245,0,8.968" transform="translate(83.986 25.496)" fill="#fff" stroke="#7a031f" stroke-linecap="round" stroke-width="3"/>
      <path id="Path_160" data-name="Path 160" d="M3.277,0c-3.72-.083-4.977,7.245,0,8.968" transform="translate(118.456 39.284)" fill="#fff" stroke="#7a031f" stroke-linecap="round" stroke-width="3"/>
      <path id="Path_161" data-name="Path 161" d="M3.277,0c-3.72-.083-4.977,7.245,0,8.968" transform="translate(70.467 53.073)" fill="#fff" stroke="#7a031f" stroke-linecap="round" stroke-width="3"/>
      <path id="Path_162" data-name="Path 162" d="M3.277,0c-3.72-.083-4.977,7.245,0,8.968" transform="translate(31.4 31.241)" fill="#fff" stroke="#7a031f" stroke-linecap="round" stroke-width="3"/>
      <path id="Path_163" data-name="Path 163" d="M3.277,0c-3.72-.083-4.977,7.245,0,8.968" transform="translate(44.04 50.775)" fill="#fff" stroke="#7a031f" stroke-linecap="round" stroke-width="3"/>
      <path id="Path_164" data-name="Path 164" d="M3.277,0c-3.72-.083-4.977,7.245,0,8.968" transform="translate(133.663 16.304)" fill="#fff" stroke="#7a031f" stroke-linecap="round" stroke-width="3"/>
    </g>
    <g id="taro" transform="translate(434.394 2474.005) rotate(-137)">
      <path id="Path_177" data-name="Path 177" d="M101.511.027c22.2.724,33.3,4.263,25.32,27.585S97.564,80.805,87.78,87.345,57.6,105.675,39.541,106.83.911,105.482.084,85.254,4.6,39.882,12.758,34.21,32.07,25.781,39.541,19.576,79.313-.7,101.511.027Z" transform="translate(1.803)" fill="#fff" stroke="#7a031f" stroke-width="3"/>
      <path id="Path_178" data-name="Path 178" d="M0,0C3.528.742,27.444,26.152,38.924,60.817" transform="translate(67.307 7.499)" fill="none" stroke="#7a031f" stroke-width="3"/>
      <path id="Path_179" data-name="Path 179" d="M0,0C5.891,1.787,27.117,17.312,31.35,49.8" transform="translate(85.123 1.303)" fill="none" stroke="#7a031f" stroke-width="3"/>
      <path id="Path_180" data-name="Path 180" d="M0,0C6.58.573,49.162,26.537,55.785,59.815" transform="translate(42.289 18.372)" fill="none" stroke="#7a031f" stroke-width="3"/>
      <path id="Path_181" data-name="Path 181" d="M0,0S34.6,28.21,46.67,69.968" transform="translate(38.074 21.361)" fill="none" stroke="#7a031f" stroke-width="3"/>
      <path id="Path_182" data-name="Path 182" d="M0,0C8.2.957,45.1,36.466,43.586,70.1" transform="translate(19.915 31.556)" fill="none" stroke="#7a031f" stroke-width="3"/>
      <path id="Path_183" data-name="Path 183" d="M0,0S35.733,27.191,40.593,64.3" transform="translate(9.307 40.188)" fill="none" stroke="#7a031f" stroke-width="3"/>
      <path id="Path_184" data-name="Path 184" d="M0,0S25.615,23.437,37.758,57.462" transform="translate(6.539 47.799)" fill="none" stroke="#7a031f" stroke-width="3"/>
      <path id="Path_185" data-name="Path 185" d="M6.307,0S1.461.993,0,5.081" transform="translate(19.111 58.028)" fill="none" stroke="#7a031f" stroke-width="3"/>
      <path id="Path_186" data-name="Path 186" d="M7.236,0A74.522,74.522,0,0,1,0,2.018" transform="translate(35.328 87.192)" fill="none" stroke="#7a031f" stroke-width="3"/>
      <path id="Path_187" data-name="Path 187" d="M0,0S19.575,5.8,22.143,31.958" transform="translate(1.803 73.41)" fill="none" stroke="#7a031f" stroke-width="3"/>
      <path id="Path_188" data-name="Path 188" d="M0,0s10.377,1.717,10.81,17.989" transform="translate(1.803 83.404)" fill="none" stroke="#7a031f" stroke-width="3"/>
      <path id="Path_189" data-name="Path 189" d="M19.346,0,0,8.227" transform="translate(79.106 11.609)" fill="none" stroke="#7a031f" stroke-width="3"/>
      <path id="Path_190" data-name="Path 190" d="M0,0S16.982,10.725,22.664,27.748" transform="translate(104.585)" fill="none" stroke="#7a031f" stroke-width="3"/>
      <path id="Path_191" data-name="Path 191" d="M9.037,0,0,5.326" transform="translate(50.634 29.505)" fill="none" stroke="#7a031f" stroke-width="3"/>
      <path id="Path_192" data-name="Path 192" d="M4.21,0,0,8.121" transform="translate(83.018 22.282)" fill="none" stroke="#7a031f" stroke-linecap="round" stroke-width="3"/>
      <path id="Path_196" data-name="Path 196" d="M4.926,0,0,10.225" transform="translate(77.998 66.409)" fill="none" stroke="#7a031f" stroke-linecap="round" stroke-width="3"/>
      <path id="Path_197" data-name="Path 197" d="M6.118,0,0,14.735" transform="translate(61.175 93.308) rotate(-21)" fill="none" stroke="#7a031f" stroke-linecap="round" stroke-width="3"/>
      <path id="Path_198" data-name="Path 198" d="M4.338,0,0,12" transform="translate(35.106 101.794) rotate(8)" fill="none" stroke="#7a031f" stroke-linecap="round" stroke-width="3"/>
      <path id="Path_199" data-name="Path 199" d="M3.218,0,0,9.614" transform="translate(47.741 78.317) rotate(8)" fill="none" stroke="#7a031f" stroke-linecap="round" stroke-width="3"/>
      <path id="Path_200" data-name="Path 200" d="M12.106,0,0,6.356" transform="translate(0.885 64.216) rotate(8)" fill="none" stroke="#7a031f" stroke-linecap="round" stroke-width="3"/>
      <path id="Path_201" data-name="Path 201" d="M12.106,0,0,6.356" transform="matrix(0.259, -0.966, 0.966, 0.259, 118.985, 45.247)" fill="none" stroke="#7a031f" stroke-linecap="round" stroke-width="3"/>
      <path id="Path_193" data-name="Path 193" d="M6.774,0,0,8.782" transform="translate(121.568 8.861)" fill="none" stroke="#7a031f" stroke-width="3"/>
      <path id="Path_194" data-name="Path 194" d="M8.755,0A15.41,15.41,0,0,1,0,11.146" transform="translate(93.482 55.772)" fill="none" stroke="#7a031f" stroke-width="3"/>
      <path id="Path_195" data-name="Path 195" d="M13.877,0,0,1.455" transform="translate(22.042 36.229)" fill="none" stroke="#7a031f" stroke-width="3"/>
    </g>
    <g id="peanut" transform="translate(232.419 2390.562)">
      <path id="Path_211" data-name="Path 211" d="M6901.792,2429.154c1.961.691,9.794-2.231,17.776,2.418s6.977.755,13.142,1.694,15.461,5.8,16.91,15.284-9.479,13.652-15.449,13.782-13.7-7.37-17.8-9.007-8.971-.055-14.575-4.311-9.043-14.041-7.65-17.073S6899.832,2428.463,6901.792,2429.154Z" transform="translate(-6893.832 -2428.871)" fill="#fff" stroke="#7a031f" stroke-width="3"/>
      <path id="Path_212" data-name="Path 212" d="M2.1,0,4.583.143c1.449,0,2.163.369,2.163,1.446s-1.175,1.95-2.624,1.95L2.37,3.361C.921,3.361,0,2.665,0,1.589S.653,0,2.1,0Z" transform="matrix(0.921, 0.391, -0.391, 0.921, 18.734, 2.89)" fill="#7a031f"/>
      <path id="Path_213" data-name="Path 213" d="M1.839,0,4.009.147C5.277.147,5.9.526,5.9,1.634a2.165,2.165,0,0,1-2.3,2.005L2.073,3.457A1.831,1.831,0,0,1,0,1.634C0,.526.571,0,1.839,0Z" transform="translate(26.921 6.517) rotate(9)" fill="#7a031f"/>
      <path id="Path_214" data-name="Path 214" d="M1.855,0,4.026.138c1.268,0,1.892.358,1.892,1.4S4.935,2.988,3.812,3.171L1.04,3.1C-.212,2.664.016,2.583.016,1.54S.587,0,1.855,0Z" transform="translate(37.6 8.761) rotate(9)" fill="#7a031f"/>
      <path id="Path_215" data-name="Path 215" d="M6899.325,2437.049s8.086,6.653,16.025,7.77,7.257,3.394,8.852,4.829,9.479,4.778,14.067,3.681" transform="translate(-6892.076 -2426.26)" fill="none" stroke="#7a031f" stroke-linecap="round" stroke-width="3"/>
    </g>
    <g id="peanut-2" data-name="peanut" transform="matrix(0.848, -0.53, 0.53, 0.848, 209.332, 2410.559)">
      <path id="Path_211-2" data-name="Path 211" d="M47.958.283C46,.974,38.164-1.948,30.182,2.7S23.205,3.456,17.04,4.4,1.58,10.2.13,19.679,9.608,33.331,15.579,33.461s13.7-7.37,17.8-9.008,8.972-.054,14.575-4.31S57,6.1,55.608,3.07,49.918-.408,47.958.283Z" fill="#fff" stroke="#7a031f" stroke-width="3"/>
      <path id="Path_212-2" data-name="Path 212" d="M2.1,3.538,4.583,3.4c1.449,0,2.163-.369,2.163-1.446S5.572,0,4.123,0L2.37.177C.921.177,0,.873,0,1.95S.653,3.538,2.1,3.538Z" transform="matrix(-0.921, 0.391, -0.391, -0.921, 38.568, 6.147)" fill="#7a031f"/>
      <path id="Path_213-2" data-name="Path 213" d="M1.839,3.639l2.171-.147c1.268,0,1.892-.379,1.892-1.487A2.165,2.165,0,0,0,3.607,0L2.073.182A1.831,1.831,0,0,0,0,2.005C0,3.113.571,3.639,1.839,3.639Z" transform="translate(29.568 10.111) rotate(171)" fill="#7a031f"/>
      <path id="Path_214-2" data-name="Path 214" d="M1.855,3.171l2.171-.138c1.268,0,1.892-.358,1.892-1.4S4.935.183,3.812,0L1.04.075C-.212.507.016.588.016,1.632S.587,3.171,1.855,3.171Z" transform="translate(18.815 11.893) rotate(171)" fill="#7a031f"/>
      <path id="Path_215-2" data-name="Path 215" d="M38.943,0S30.858,6.653,22.918,7.77s-7.257,3.394-8.852,4.829S4.588,17.377,0,16.28" transform="translate(9.727 10.79)" fill="none" stroke="#7a031f" stroke-linecap="round" stroke-width="3"/>
    </g>
    <g id="Group_291" data-name="Group 291" transform="translate(252.431 2424.219)">
      <path id="Path_216" data-name="Path 216" d="M6873.207,2665.479c-.026.711-2.124,6.4-10.041,6.9s-18.63-6.164-17.869-10.168,2.681-8.434,11.406-8.336,16.685,5.365,17.347,7.105S6873.207,2665.479,6873.207,2665.479Z" transform="translate(-6845.258 -2653.876)" fill="#fff" stroke="#7a031f" stroke-linecap="round" stroke-width="3"/>
      <path id="Path_217" data-name="Path 217" d="M6869.571,2677.554c-5.133,2.864-11.605.779-14.987-2.346" transform="translate(-6848.264 -2665.792)" fill="none" stroke="#7a031f" stroke-linecap="round" stroke-width="3"/>
    </g>
    <g id="Group_290" data-name="Group 290" transform="translate(240.657 2430.815)">
      <path id="Path_216-2" data-name="Path 216" d="M6846.27,2665.479c.027.711,2.125,6.4,10.042,6.9s18.63-6.164,17.868-10.168-2.68-8.434-11.405-8.336-16.685,5.365-17.347,7.105S6846.27,2665.479,6846.27,2665.479Z" transform="translate(-6845.259 -2653.876)" fill="#fff" stroke="#7a031f" stroke-linecap="round" stroke-width="3"/>
      <path id="Path_217-2" data-name="Path 217" d="M6854.584,2677.554c5.133,2.864,11.605.779,14.987-2.346" transform="translate(-6846.932 -2665.792)" fill="none" stroke="#7a031f" stroke-linecap="round" stroke-width="3"/>
    </g>
  </g>
</svg>
