<svg xmlns="http://www.w3.org/2000/svg" width="161" height="62.524" viewBox="0 0 161 62.524"><defs><style>.a,.b,.c{fill:#7a031f;}.b{font-size:36px;}.b,.c,.d{font-family:TsukuARdGothic-Bold, Tsukushi A Round Gothic;font-weight:700;letter-spacing:0.056em;}.c{font-size:32px;}.d,.h{fill:#fff;}.d{font-size:30px;}.e,.f{fill:none;}.f{stroke:#fff;}.g,.h{stroke:none;}</style></defs><g transform="translate(0 0)"><g transform="translate(-502 -314.531)"><g transform="translate(492 321)"><path class="a" d="M20.146-1.992c14.5-1.515,22.607,10,23.964,22.575s-.323,25.51-19.238,25.727S.525,37.376,1.884,23.5,5.644-.477,20.146-1.992Z" transform="translate(41.255 6.354) rotate(-14)"/><text class="b" transform="translate(133 36)"><tspan x="-37.008" y="0">包子</tspan></text><text class="c" transform="translate(26 34)"><tspan x="-16" y="0">小</tspan></text><text class="d" transform="translate(69 34)"><tspan x="-15" y="0">豆</tspan></text></g></g><g class="e" transform="matrix(0.276, 0.961, -0.961, 0.276, 54.289, 6.555)"><path class="g" d="M1.039.3l3.7-.3a1.292,1.292,0,0,1,1.33,1.2,1.38,1.38,0,0,1-1.33,1.41l-3.707-.32A.938.938,0,0,1,0,1.33,1,1,0,0,1,1.039.3Z"/><path class="h" d="M 4.766511917114258 1.000775814056396 L 1.12031364440918 1.297285556793213 L 1.118355274200439 1.297444820404053 L 4.73248291015625 1.609725832939148 C 4.805594921112061 1.587381362915039 5.088353633880615 1.487093687057495 5.070313453674316 1.299555540084839 C 5.062699317932129 1.220485925674438 5.042912483215332 1.015025496482849 4.766511917114258 1.000775814056396 M 4.735513687133789 -4.529953002929688e-06 C 5.20107364654541 -4.529953002929688e-06 5.975463390350342 0.2658255100250244 6.065713405609131 1.203775525093079 C 6.15596342086792 2.141735553741455 5.20107364654541 2.613715648651123 4.735513687133789 2.613715648651123 L 1.028233528137207 2.29338550567627 C 0.5626735687255859 2.29338550567627 3.814697265625e-06 2.051615476608276 3.814697265625e-06 1.329865574836731 C 3.814697265625e-06 0.6081056594848633 0.5736937522888184 0.3005754947662354 1.039263725280762 0.3005754947662354 L 4.735513687133789 -4.529953002929688e-06 Z"/></g><path class="f" d="M1029.719-529.513s3.468,11.323-9.476,24.138-22.376,8.216-22.376,8.216" transform="translate(-1071.728 -43.304) rotate(31)"/></g></svg>